<?xml version="1.0" encoding="utf-8"?>
<!-- Generator: Adobe Illustrator 26.5.0, SVG Export Plug-In . SVG Version: 6.00 Build 0)  -->
<svg version="1.1" xmlns="http://www.w3.org/2000/svg" xmlns:xlink="http://www.w3.org/1999/xlink" x="0px" y="0px"
	 viewBox="0 0 612.3 652" style="enable-background:new 0 0 612.3 652;" xml:space="preserve">
<style type="text/css">
	.st0{fill:#0B2A46;}
	.st1{opacity:0.2;fill:#FFEDD5;stroke:#E8E7E7;stroke-width:0.9069;}
	.st2{opacity:0.2;fill:#FFEDD5;stroke:#E8E7E7;stroke-width:0.9069;stroke-dasharray:0.9069,0.9069;}
	.st3{fill:#FFFFFF;}
	.st4{font-family:'Montserrat-Bold', sans-serif;}
	.st5{font-size:20px;}
	.st6{fill:#506CA6;}
	.st7{fill:none;stroke:#506CA6;stroke-width:2.7208;}
	.st8{fill:#FAFAFA;}
	.st9{font-family:'Montserrat-Regular', sans-serif;}
	.st10{font-size:11px;}
	.st11{fill:none;stroke:#CF5240;stroke-width:2.7208;}
	.st12{fill:#CF5240;}
	.st13{fill:#89BF4D;}
	.st14{fill:none;stroke:#89BF4D;stroke-width:2.7208;}
	.st15{fill:#76AD3A;}
	.st16{font-family:'Montserrat-SemiBold', sans-serif;}
	.st17{font-size:10.883px;}
	.st18{fill:#878889;}
	.st19{font-family:'ArialMT';}
	.st20{font-size:9.9761px;}
	.st21{fill:#A2A2A1;}
	.st22{font-family:'Montserrat-Medium', sans-serif;}
	.st23{font-size:12px;}
	.st24{fill:#A2A2A0;}
</style>
<g id="Fondo">
	<rect x="-0.2" class="st0" width="613.6" height="652"/>
</g>
<g id="Grid">
	<line class="st1" x1="79.2" y1="593.9" x2="79.2" y2="63.8"/>
	<line class="st1" x1="144.6" y1="593.9" x2="144.6" y2="63.8"/>
	<line class="st1" x1="210.1" y1="593.9" x2="210.1" y2="63.8"/>
	<line class="st1" x1="275.6" y1="593.9" x2="275.6" y2="63.8"/>
	<line class="st1" x1="341.1" y1="593.9" x2="341.1" y2="63.8"/>
	<line class="st1" x1="406.6" y1="593.9" x2="406.6" y2="63.8"/>
	<line class="st1" x1="472.1" y1="593.9" x2="472.1" y2="63.8"/>
	<line class="st1" x1="537.6" y1="593.9" x2="537.6" y2="63.8"/>
	<line class="st2" x1="62.1" y1="70.1" x2="544" y2="70.1"/>
	<line class="st2" x1="62.1" y1="87.3" x2="544" y2="87.3"/>
	<line class="st2" x1="62.1" y1="103.7" x2="544" y2="103.7"/>
	<line class="st2" x1="62.1" y1="120" x2="544" y2="120"/>
	<line class="st2" x1="62.1" y1="137.2" x2="544" y2="137.2"/>
	<line class="st2" x1="62.1" y1="153.6" x2="544" y2="153.6"/>
	<line class="st2" x1="62.1" y1="170.8" x2="544" y2="170.8"/>
	<line class="st2" x1="62.1" y1="187.1" x2="544" y2="187.1"/>
	<line class="st2" x1="62.1" y1="203.4" x2="544" y2="203.4"/>
	<line class="st2" x1="62.1" y1="220.7" x2="544" y2="220.7"/>
	<line class="st2" x1="62.1" y1="237" x2="544" y2="237"/>
	<line class="st2" x1="62.1" y1="253.3" x2="544" y2="253.3"/>
	<line class="st2" x1="62.1" y1="270.5" x2="544" y2="270.5"/>
	<line class="st2" x1="62.1" y1="286.9" x2="544" y2="286.9"/>
	<line class="st2" x1="62.1" y1="304.1" x2="544" y2="304.1"/>
	<line class="st2" x1="62.1" y1="320.4" x2="544" y2="320.4"/>
	<line class="st2" x1="62.1" y1="336.8" x2="544" y2="336.8"/>
	<line class="st2" x1="62.1" y1="354" x2="544" y2="354"/>
	<line class="st2" x1="62.1" y1="370.3" x2="544" y2="370.3"/>
	<line class="st2" x1="62.1" y1="387.5" x2="544" y2="387.5"/>
	<line class="st2" x1="62.1" y1="403.9" x2="544" y2="403.9"/>
	<line class="st2" x1="62.1" y1="420.2" x2="544" y2="420.2"/>
	<line class="st2" x1="62.1" y1="437.4" x2="544" y2="437.4"/>
	<line class="st2" x1="62.1" y1="453.7" x2="544" y2="453.7"/>
	<line class="st2" x1="62.1" y1="471" x2="544" y2="471"/>
	<line class="st2" x1="62.1" y1="487.3" x2="544" y2="487.3"/>
	<line class="st2" x1="62.1" y1="503.6" x2="544" y2="503.6"/>
	<line class="st2" x1="62.1" y1="520.9" x2="544" y2="520.9"/>
	<line class="st2" x1="62.1" y1="537.2" x2="544" y2="537.2"/>
	<line class="st2" x1="62.1" y1="554.4" x2="544" y2="554.4"/>
	<line class="st2" x1="62.1" y1="570.7" x2="544" y2="570.7"/>
	<line class="st2" x1="62.1" y1="587.1" x2="544" y2="587.1"/>
</g>
<g id="Arrow">
	<g id="header">
		<text transform="matrix(1 0 0 1 27.8481 51.9799)" class="st3 st4 st5">Sexenio 1 a Sexenio 2</text>
	</g>
	<g id="chart">
		<path class="st6" d="M253.9,68.9h58c1,0,1.8,0.6,1.8,1.4l0,0c0,0.8-0.8,1.4-1.8,1.4h-58c-1,0-1.8-0.6-1.8-1.4l0,0
			C252,69.5,252.9,68.9,253.9,68.9z"/>
		<path class="st7" d="M307.7,64.2l6.1,6.1l-6.1,6.1"/>
		<text transform="matrix(1 0 0 1 220.1968 74.8231)" class="st8 st9 st10">  2.32</text>
		<text transform="matrix(1 0 0 1 318.1436 74.8231)" class="st8 st9 st10">2.79</text>
		<path class="st11" d="M208.8,80.9V93"/>
		<text transform="matrix(1 0 0 1 176.9766 91.5018)" class="st12 st9 st10">  1.99</text>
		<text transform="matrix(1 0 0 1 213.3521 91.5018)" class="st12 st9 st10">1.99</text>
		<path class="st12" d="M400.5,102.3h33.1c1,0,1.8,0.6,1.8,1.4l0,0c0,0.8-0.8,1.4-1.8,1.4h-33.1c-1,0-1.8-0.6-1.8-1.4l0,0
			C398.7,102.9,399.5,102.3,400.5,102.3z"/>
		<path class="st11" d="M404.7,97.6l-6.1,6.1l6.1,6.1"/>
		<text transform="matrix(1 0 0 1 439.9541 108.181)" class="st12 st9 st10">3.72</text>
		<text transform="matrix(1 0 0 1 366.8906 108.181)" class="st12 st9 st10">  3.44</text>
		<path class="st12" d="M95.4,119h82.8c1,0,1.8,0.6,1.8,1.4l0,0c0,0.8-0.8,1.4-1.8,1.4H95.4c-1,0-1.8-0.6-1.8-1.4l0,0
			C93.6,119.6,94.4,119,95.4,119z"/>
		<path class="st11" d="M99.5,114.2l-6.1,6.1l6.1,6.1"/>
		<text transform="matrix(1 0 0 1 184.5435 124.8593)" class="st12 st9 st10">1.77</text>
		<text transform="matrix(1 0 0 1 61.7129 124.8593)" class="st12 st9 st10">  1.11</text>
		<path class="st6" d="M327.2,135.6h35.7c1,0,1.8,0.6,1.8,1.4l0,0c0,0.8-0.8,1.4-1.8,1.4h-35.7c-1,0-1.8-0.6-1.8-1.4l0,0
			C325.4,136.3,326.2,135.6,327.2,135.6z"/>
		<path class="st7" d="M358.7,130.9l6.1,6.1l-6.1,6.1"/>
		<text transform="matrix(1 0 0 1 293.5435 141.538)" class="st8 st9 st10">  2.88</text>
		<text transform="matrix(1 0 0 1 369.2148 141.538)" class="st8 st9 st10">3.18</text>
		<path class="st13" d="M197.5,152.3h76.3c1,0,1.8,0.6,1.8,1.4l0,0c0,0.8-0.8,1.4-1.8,1.4h-76.3c-1,0-1.8-0.6-1.8-1.4l0,0
			C195.7,152.9,196.5,152.3,197.5,152.3z"/>
		<path class="st14" d="M269.7,147.6l6.1,6.1l-6.1,6.1"/>
		<text transform="matrix(1 0 0 1 163.8828 158.2172)" class="st15 st9 st10">  1.89</text>
		<text transform="matrix(1 0 0 1 280.1523 158.2172)" class="st15 st9 st10">2.50</text>
		<path class="st6" d="M346.9,169h89.4c1,0,1.8,0.6,1.8,1.4l0,0c0,0.8-0.8,1.4-1.8,1.4h-89.4c-1,0-1.8-0.6-1.8-1.4l0,0
			C345,169.6,345.9,169,346.9,169z"/>
		<path class="st7" d="M432.1,164.3l6.1,6.1l-6.1,6.1"/>
		<text transform="matrix(1 0 0 1 313.1982 174.8959)" class="st3 st9 st10">  3.03</text>
		<text transform="matrix(1 0 0 1 442.5615 174.8959)" class="st3 st9 st10">3.74</text>
		<path class="st6" d="M251.2,185.7h1.6c1,0,1.8,0.6,1.8,1.4l0,0c0,0.8-0.8,1.4-1.8,1.4h-1.6c-1,0-1.8-0.6-1.8-1.4l0,0
			C249.4,186.3,250.2,185.7,251.2,185.7z"/>
		<path class="st7" d="M248.7,180.9l6.1,6.1l-6.1,6.1"/>
		<text transform="matrix(1 0 0 1 217.5747 191.5741)" class="st3 st9 st10">  2.30</text>
		<text transform="matrix(1 0 0 1 259.1943 191.5741)" class="st3 st9 st10">2.34</text>
		<path class="st6" d="M371.7,202.4h60.6c1,0,1.8,0.6,1.8,1.4l0,0c0,0.8-0.8,1.4-1.8,1.4h-60.6c-1,0-1.8-0.6-1.8-1.4l0,0
			C369.9,203,370.7,202.4,371.7,202.4z"/>
		<path class="st7" d="M428.2,197.6l6.1,6.1l-6.1,6.1"/>
		<text transform="matrix(1 0 0 1 338.082 208.2533)" class="st3 st9 st10">  3.22</text>
		<text transform="matrix(1 0 0 1 438.6357 208.2533)" class="st3 st9 st10">3.71</text>
		<path class="st6" d="M333.8,219h93.3c1,0,1.8,0.6,1.8,1.4l0,0c0,0.8-0.8,1.4-1.8,1.4h-93.3c-1,0-1.8-0.6-1.8-1.4l0,0
			C331.9,219.6,332.8,219,333.8,219z"/>
		<path class="st7" d="M422.9,214.3l6.1,6.1l-6.1,6.1"/>
		<text transform="matrix(1 0 0 1 300.1045 224.932)" class="st3 st9 st10">  2.93</text>
		<text transform="matrix(1 0 0 1 433.3926 224.932)" class="st3 st9 st10">3.67</text>
		<path class="st13" d="M168.7,235.7h99.9c1,0,1.8,0.6,1.8,1.4l0,0c0,0.8-0.8,1.4-1.8,1.4h-99.9c-1,0-1.8-0.6-1.8-1.4l0,0
			C166.9,236.3,167.7,235.7,168.7,235.7z"/>
		<path class="st14" d="M264.4,231l6.1,6.1l-6.1,6.1"/>
		<text transform="matrix(1 0 0 1 135.0601 241.6112)" class="st15 st9 st10">  1.67</text>
		<text transform="matrix(1 0 0 1 274.9092 241.6112)" class="st15 st9 st10">2.46</text>
		<path class="st13" d="M316.7,252.4h115.6c1,0,1.8,0.6,1.8,1.4l0,0c0,0.8-0.8,1.4-1.8,1.4H316.7c-1,0-1.8-0.6-1.8-1.4l0,0
			C314.9,253,315.7,252.4,316.7,252.4z"/>
		<path class="st14" d="M428.2,247.7l6.1,6.1l-6.1,6.1"/>
		<text transform="matrix(1 0 0 1 283.0713 258.2899)" class="st15 st9 st10">  2.80</text>
		<text transform="matrix(1 0 0 1 438.6357 258.2899)" class="st15 st9 st10">3.71</text>
		<path class="st6" d="M230.3,269.1h61.9c1,0,1.8,0.6,1.8,1.4l0,0c0,0.8-0.8,1.4-1.8,1.4h-61.9c-1,0-1.8-0.6-1.8-1.4l0,0
			C228.5,269.7,229.3,269.1,230.3,269.1z"/>
		<path class="st7" d="M288,264.3l6.1,6.1l-6.1,6.1"/>
		<text transform="matrix(1 0 0 1 196.6309 274.9681)" class="st3 st9 st10">  2.14</text>
		<text transform="matrix(1 0 0 1 298.4893 274.9681)" class="st3 st9 st10">2.64</text>
		<path class="st6" d="M314.1,285.8h93.3c1,0,1.8,0.6,1.8,1.4l0,0c0,0.8-0.8,1.4-1.8,1.4h-93.3c-1,0-1.8-0.6-1.8-1.4l0,0
			C312.3,286.4,313.1,285.8,314.1,285.8z"/>
		<path class="st7" d="M403.3,281l6.1,6.1l-6.1,6.1"/>
		<text transform="matrix(1 0 0 1 280.4497 291.6473)" class="st3 st9 st10">  2.78</text>
		<text transform="matrix(1 0 0 1 413.752 291.6473)" class="st3 st9 st10">3.52</text>
		<path class="st6" d="M260.4,302.4h30.5c1,0,1.8,0.6,1.8,1.4l0,0c0,0.8-0.8,1.4-1.8,1.4h-30.5c-1,0-1.8-0.6-1.8-1.4l0,0
			C258.6,303,259.4,302.4,260.4,302.4z"/>
		<path class="st7" d="M286.7,297.7l6.1,6.1l-6.1,6.1"/>
		<text transform="matrix(1 0 0 1 226.7432 308.326)" class="st3 st9 st10">  2.37</text>
		<text transform="matrix(1 0 0 1 297.1855 308.326)" class="st3 st9 st10">2.63</text>
		<path class="st6" d="M260.4,319.1h73.7c1,0,1.8,0.6,1.8,1.4l0,0c0,0.8-0.8,1.4-1.8,1.4h-73.7c-1,0-1.8-0.6-1.8-1.4l0,0
			C258.6,319.7,259.4,319.1,260.4,319.1z"/>
		<path class="st7" d="M329.9,314.4l6.1,6.1l-6.1,6.1"/>
		<text transform="matrix(1 0 0 1 226.7432 325.0052)" class="st3 st9 st10">  2.37</text>
		<text transform="matrix(1 0 0 1 340.4053 325.0052)" class="st3 st9 st10">2.96</text>
		<path class="st6" d="M264.3,335.8h59.2c1,0,1.8,0.6,1.8,1.4l0,0c0,0.8-0.8,1.4-1.8,1.4h-59.2c-1,0-1.8-0.6-1.8-1.4l0,0
			C262.5,336.4,263.3,335.8,264.3,335.8z"/>
		<path class="st7" d="M319.4,331.1l6.1,6.1l-6.1,6.1"/>
		<text transform="matrix(1 0 0 1 230.6831 341.683)" class="st3 st9 st10">  2.40</text>
		<text transform="matrix(1 0 0 1 329.9189 341.683)" class="st3 st9 st10">2.88</text>
		<path class="st12" d="M496.2,352.5h6.9c1,0,1.8,0.6,1.8,1.4l0,0c0,0.8-0.8,1.4-1.8,1.4h-6.9c-1,0-1.8-0.6-1.8-1.4l0,0
			C494.4,353.1,495.2,352.5,496.2,352.5z"/>
		<path class="st11" d="M500.3,347.7l-6.1,6.1l6.1,6.1"/>
		<text transform="matrix(1 0 0 1 509.3623 358.3627)" class="st12 st9 st10">4.25</text>
		<text transform="matrix(1 0 0 1 462.5137 358.3627)" class="st12 st9 st10">  4.17</text>
		<path class="st12" d="M184.4,369.1h14.7c1,0,1.8,0.6,1.8,1.4l0,0c0,0.8-0.8,1.4-1.8,1.4h-14.7c-1,0-1.8-0.6-1.8-1.4l0,0
			C182.6,369.8,183.4,369.1,184.4,369.1z"/>
		<path class="st11" d="M188.6,364.4l-6.1,6.1l6.1,6.1"/>
		<text transform="matrix(1 0 0 1 205.5015 375.0414)" class="st12 st9 st10">1.93</text>
		<text transform="matrix(1 0 0 1 150.7891 375.0414)" class="st12 st9 st10">  1.79</text>
		<path class="st13" d="M342.9,385.8h115.6c1,0,1.8,0.6,1.8,1.4l0,0c0,0.8-0.8,1.4-1.8,1.4H342.9c-1,0-1.8-0.6-1.8-1.4l0,0
			C341.1,386.4,341.9,385.8,342.9,385.8z"/>
		<path class="st14" d="M454.4,381.1l6.1,6.1l-6.1,6.1"/>
		<text transform="matrix(1 0 0 1 309.2734 391.7201)" class="st15 st9 st10">  3.00</text>
		<text transform="matrix(1 0 0 1 464.8379 391.7201)" class="st15 st9 st10">3.91</text>
		<path class="st13" d="M217.2,402.5h81.5c1,0,1.8,0.6,1.8,1.4l0,0c0,0.8-0.8,1.4-1.8,1.4h-81.5c-1,0-1.8-0.6-1.8-1.4l0,0
			C215.4,403.1,216.2,402.5,217.2,402.5z"/>
		<path class="st14" d="M294.6,397.8l6.1,6.1l-6.1,6.1"/>
		<text transform="matrix(1 0 0 1 183.5234 408.3988)" class="st15 st9 st10">  2.04</text>
		<text transform="matrix(1 0 0 1 305.0361 408.3988)" class="st15 st9 st10">2.69</text>
		<path class="st6" d="M171.3,419.2h26.5c1,0,1.8,0.6,1.8,1.4l0,0c0,0.8-0.8,1.4-1.8,1.4h-26.5c-1,0-1.8-0.6-1.8-1.4l0,0
			C169.5,419.8,170.3,419.2,171.3,419.2z"/>
		<path class="st7" d="M193.7,414.5l6.1,6.1l-6.1,6.1"/>
		<text transform="matrix(1 0 0 1 137.6816 425.0775)" class="st3 st9 st10">  1.69</text>
		<text transform="matrix(1 0 0 1 204.1836 425.0775)" class="st3 st9 st10">1.92</text>
		<path class="st6" d="M184.4,435.9h25.2c1,0,1.8,0.6,1.8,1.4l0,0c0,0.8-0.8,1.4-1.8,1.4h-25.2c-1,0-1.8-0.6-1.8-1.4l0,0
			C182.6,436.5,183.4,435.9,184.4,435.9z"/>
		<path class="st7" d="M205.5,431.1l6.1,6.1l-6.1,6.1"/>
		<text transform="matrix(1 0 0 1 150.7891 441.7572)" class="st3 st9 st10">  1.79</text>
		<text transform="matrix(1 0 0 1 215.9736 441.7572)" class="st3 st9 st10">2.01</text>
		<path class="st6" d="M371.7,452.5h18.6c1,0,1.8,0.6,1.8,1.4l0,0c0,0.8-0.8,1.4-1.8,1.4h-18.6c-1,0-1.8-0.6-1.8-1.4l0,0
			C369.9,453.1,370.7,452.5,371.7,452.5z"/>
		<path class="st7" d="M386.2,447.8l6.1,6.1l-6.1,6.1"/>
		<text transform="matrix(1 0 0 1 338.082 458.4349)" class="st3 st9 st10">  3.22</text>
		<text transform="matrix(1 0 0 1 396.7197 458.4349)" class="st3 st9 st10">3.39</text>
		<path class="st6" d="M260.4,469.2h55.3c1,0,1.8,0.6,1.8,1.4l0,0c0,0.8-0.8,1.4-1.8,1.4h-55.3c-1,0-1.8-0.6-1.8-1.4l0,0
			C258.6,469.8,259.4,469.2,260.4,469.2z"/>
		<path class="st7" d="M311.6,464.5l6.1,6.1l-6.1,6.1"/>
		<text transform="matrix(1 0 0 1 226.7432 475.1136)" class="st3 st9 st10">  2.37</text>
		<text transform="matrix(1 0 0 1 322.0693 475.1136)" class="st3 st9 st10">2.82</text>
		<path class="st6" d="M276.1,485.9h14.7c1,0,1.8,0.6,1.8,1.4l0,0c0,0.8-0.8,1.4-1.8,1.4h-14.7c-1,0-1.8-0.6-1.8-1.4l0,0
			C274.3,486.5,275.1,485.9,276.1,485.9z"/>
		<path class="st7" d="M286.7,481.2l6.1,6.1l-6.1,6.1"/>
		<text transform="matrix(1 0 0 1 242.4731 491.7933)" class="st3 st9 st10">  2.49</text>
		<text transform="matrix(1 0 0 1 297.1855 491.7933)" class="st3 st9 st10">2.63</text>
		<path class="st6" d="M405.8,502.6H452c1,0,1.8,0.6,1.8,1.4l0,0c0,0.8-0.8,1.4-1.8,1.4h-46.2c-1,0-1.8-0.6-1.8-1.4l0,0
			C404,503.2,404.8,502.6,405.8,502.6z"/>
		<path class="st7" d="M447.8,497.8l6.1,6.1l-6.1,6.1"/>
		<text transform="matrix(1 0 0 1 372.1338 508.4711)" class="st3 st9 st10">  3.48</text>
		<text transform="matrix(1 0 0 1 458.291 508.4711)" class="st3 st9 st10">3.86</text>
		<path class="st6" d="M276.1,519.3h10.8c1,0,1.8,0.6,1.8,1.4l0,0c0,0.8-0.8,1.4-1.8,1.4h-10.8c-1,0-1.8-0.6-1.8-1.4l0,0
			C274.3,519.9,275.1,519.3,276.1,519.3z"/>
		<path class="st7" d="M282.8,514.5l6.1,6.1l-6.1,6.1"/>
		<text transform="matrix(1 0 0 1 242.4731 525.1498)" class="st3 st9 st10">  2.49</text>
		<text transform="matrix(1 0 0 1 293.2461 525.1498)" class="st3 st9 st10">2.60</text>
		<path class="st6" d="M342.9,535.9h92c1,0,1.8,0.6,1.8,1.4l0,0c0,0.8-0.8,1.4-1.8,1.4h-92c-1,0-1.8-0.6-1.8-1.4l0,0
			C341.1,536.5,341.9,535.9,342.9,535.9z"/>
		<path class="st7" d="M430.8,531.2l6.1,6.1l-6.1,6.1"/>
		<text transform="matrix(1 0 0 1 309.2734 541.8295)" class="st3 st9 st10">  3.00</text>
		<text transform="matrix(1 0 0 1 441.2578 541.8295)" class="st3 st9 st10">3.73</text>
		<path class="st6" d="M356,552.6h55.3c1,0,1.8,0.6,1.8,1.4l0,0c0,0.8-0.8,1.4-1.8,1.4H356c-1,0-1.8-0.6-1.8-1.4l0,0
			C354.2,553.2,355,552.6,356,552.6z"/>
		<path class="st7" d="M407.2,547.9l6.1,6.1l-6.1,6.1"/>
		<text transform="matrix(1 0 0 1 322.3672 558.5072)" class="st3 st9 st10">  3.10</text>
		<text transform="matrix(1 0 0 1 417.6777 558.5072)" class="st3 st9 st10">3.55</text>
		<path class="st6" d="M433.3,569.3h25.2c1,0,1.8,0.6,1.8,1.4l0,0c0,0.8-0.8,1.4-1.8,1.4h-25.2c-1,0-1.8-0.6-1.8-1.4l0,0
			C431.5,569.9,432.3,569.3,433.3,569.3z"/>
		<path class="st7" d="M454.4,564.6l6.1,6.1l-6.1,6.1"/>
		<text transform="matrix(1 0 0 1 399.6387 575.1869)" class="st3 st9 st10">  3.69</text>
		<text transform="matrix(1 0 0 1 464.8379 575.1869)" class="st3 st9 st10">3.91</text>
		<path class="st6" d="M339,586h107.7c1,0,1.8,0.6,1.8,1.4l0,0c0,0.8-0.8,1.4-1.8,1.4H339c-1,0-1.8-0.6-1.8-1.4l0,0
			C337.2,586.6,338,586,339,586z"/>
		<path class="st7" d="M442.6,581.2l6.1,6.1l-6.1,6.1"/>
		<text transform="matrix(1 0 0 1 305.3335 591.8656)" class="st3 st9 st10">  2.97</text>
		<text transform="matrix(1 0 0 1 453.0479 591.8656)" class="st3 st9 st10">3.82</text>
	</g>
	<g id="Estados">
		<text transform="matrix(1 0 0 1 34.5776 74.6532)" class="st3 st16 st17">AGS</text>
		<text transform="matrix(1 0 0 1 35.1841 108.0106)" class="st3 st16 st17">BCS</text>
		<text transform="matrix(1 0 0 1 26.1177 124.6893)" class="st3 st16 st17">CAMP</text>
		<text transform="matrix(1 0 0 1 25.5176 141.3685)" class="st3 st16 st17">CDMX</text>
		<text transform="matrix(1 0 0 1 30.959 158.0468)" class="st3 st16 st17">CHIH</text>
		<text transform="matrix(1 0 0 1 31.5596 174.7255)" class="st3 st16 st17">CHIS</text>
		<text transform="matrix(1 0 0 1 26.1177 191.4047)" class="st3 st16 st17">COAH</text>
		<text transform="matrix(1 0 0 1 35.1841 208.0834)" class="st3 st16 st17">COL</text>
		<text transform="matrix(1 0 0 1 32.771 224.7616)" class="st3 st16 st17">DGO</text>
		<text transform="matrix(1 0 0 1 10.394 241.4408)" class="st3 st16 st17">EDOMEX</text>
		<text transform="matrix(1 0 0 1 32.771 258.1195)" class="st3 st16 st17">GRO</text>
		<text transform="matrix(1 0 0 1 34.1797 274.7987)" class="st3 st16 st17">GTO</text>
		<text transform="matrix(1 0 0 1 32.771 291.4774)" class="st3 st16 st17">HGO</text>
		<text transform="matrix(1 0 0 1 38.8076 308.1561)" class="st3 st16 st17">JAL</text>
		<text transform="matrix(1 0 0 1 29.7529 324.8344)" class="st3 st16 st17">MICH</text>
		<text transform="matrix(1 0 0 1 32.1709 341.5131)" class="st3 st16 st17">MOR</text>
		<text transform="matrix(1 0 0 1 35.9912 358.1927)" class="st3 st16 st17">NAY</text>
		<text transform="matrix(1 0 0 1 34.5776 391.5502)" class="st3 st16 st17">OAX</text>
		<text transform="matrix(1 0 0 1 35.1841 408.2289)" class="st3 st16 st17">PUE</text>
		<text transform="matrix(1 0 0 1 32.771 424.9066)" class="st3 st16 st17">QRO</text>
		<text transform="matrix(1 0 0 1 24.3062 441.5863)" class="st3 st16 st17">QROO</text>
		<text transform="matrix(1 0 0 1 39.4185 458.265)" class="st3 st16 st17">SIN</text>
		<text transform="matrix(1 0 0 1 36.9902 474.9447)" class="st3 st16 st17">SLP</text>
		<text transform="matrix(1 0 0 1 33.9771 491.6224)" class="st3 st16 st17">SON</text>
		<text transform="matrix(1 0 0 1 37.2026 508.3011)" class="st3 st16 st17">TAB</text>
		<text transform="matrix(1 0 0 1 20.8784 524.9808)" class="st3 st16 st17">TAMPS</text>
		<text transform="matrix(1 0 0 1 30.3423 541.6586)" class="st3 st16 st17">TLAX</text>
		<text transform="matrix(1 0 0 1 35.1841 558.3383)" class="st3 st16 st17">VER</text>
		<text transform="matrix(1 0 0 1 34.583 575.017)" class="st3 st16 st17">YUC</text>
		<text transform="matrix(1 0 0 1 35.7949 591.6947)" class="st3 st16 st17">ZAC</text>
		<text transform="matrix(1 0 0 1 42.4424 91.3314)" class="st3 st16 st17">BC</text>
		<text transform="matrix(1 0 0 1 43.6489 374.8705)" class="st3 st16 st17">NL</text>
	</g>
	<g id="footer">
		<text transform="matrix(1 0 0 1 9.8481 639.6635)" class="st18 st19 st20">Created with</text>
		<text transform="matrix(1 0 0 1 68.332 639.6635)" class="st18 st19 st20">Datawrapper</text>
	</g>
	<g id="Porcentajes_x5F_Lat">
		<text transform="matrix(1 0 0 1 546.6125 74.8243)" class="st8 st9 st10">+20%</text>
		<text transform="matrix(1 0 0 1 546.003 91.2202)" class="st12 st9 st10">+0%</text>
		<text transform="matrix(1 0 0 1 546.0031 107.899)" class="st12 st9 st10">-7.5%</text>
		<text transform="matrix(1 0 0 1 546.0025 124.5777)" class="st12 st9 st10">-37.3%</text>
		<text transform="matrix(1 0 0 1 546.003 141.2564)" class="st8 st9 st10">+10%</text>
		<text transform="matrix(1 0 0 1 546.0031 157.9356)" class="st15 st9 st10">+32%</text>
		<text transform="matrix(1 0 0 1 546.0031 174.6143)" class="st3 st9 st10">+23%</text>
		<text transform="matrix(1 0 0 1 546.003 191.293)" class="st3 st9 st10">+2%</text>
		<text transform="matrix(1 0 0 1 546.0031 207.9717)" class="st3 st9 st10">+15%</text>
		<text transform="matrix(1 0 0 1 546.0031 224.6504)" class="st3 st9 st10">+25%</text>
		<text transform="matrix(1 0 0 1 546.003 241.3291)" class="st15 st9 st10">+47%</text>
		<text transform="matrix(1 0 0 1 546.0031 258.0083)" class="st15 st9 st10">+33%</text>
		<text transform="matrix(1 0 0 1 546.003 274.687)" class="st3 st9 st10">+23%</text>
		<text transform="matrix(1 0 0 1 546.0031 291.3658)" class="st3 st9 st10">+27%</text>
		<text transform="matrix(1 0 0 1 546.003 308.0445)" class="st3 st9 st10">+11%</text>
		<text transform="matrix(1 0 0 1 546.003 324.7237)" class="st3 st9 st10">+25%</text>
		<text transform="matrix(1 0 0 1 546.003 341.4024)" class="st3 st9 st10">+20%</text>
		<text transform="matrix(1 0 0 1 546.0031 358.0811)" class="st12 st9 st10">-1.9%</text>
		<text transform="matrix(1 0 0 1 546.003 374.7598)" class="st12 st9 st10">-7.3%</text>
		<text transform="matrix(1 0 0 1 546.0031 391.4385)" class="st15 st9 st10">+30%</text>
		<text transform="matrix(1 0 0 1 546.0031 408.1172)" class="st15 st9 st10">+32%</text>
		<text transform="matrix(1 0 0 1 546.0031 424.7959)" class="st3 st9 st10">+14%</text>
		<text transform="matrix(1 0 0 1 546.0026 441.4746)" class="st3 st9 st10">+12%</text>
		<text transform="matrix(1 0 0 1 546.0027 458.1534)" class="st3 st9 st10">+5%</text>
		<text transform="matrix(1 0 0 1 546.0027 474.8321)" class="st3 st9 st10">+19%</text>
		<text transform="matrix(1 0 0 1 546.0027 491.5108)" class="st3 st9 st10">+6%</text>
		<text transform="matrix(1 0 0 1 546.0027 508.1895)" class="st3 st9 st10">+11%</text>
		<text transform="matrix(1 0 0 1 546.0026 524.8682)" class="st3 st9 st10">+4%</text>
		<text transform="matrix(1 0 0 1 546.0027 541.5479)" class="st3 st9 st10">+24%</text>
		<text transform="matrix(1 0 0 1 546.0027 558.2266)" class="st3 st9 st10">+15%</text>
		<text transform="matrix(1 0 0 1 546.0027 574.9053)" class="st3 st9 st10">+6%</text>
		<text transform="matrix(1 0 0 1 546.0027 591.584)" class="st3 st9 st10">+29%</text>
	</g>
	<g id="Eje_x5F_X" transform="translate(57.60938, 35)">
		<g id="grid-svg_00000166665718327356406770000004914190962046736016_">
			
				<g id="x-tick-labels-svg_grid-x-svg_number-axis-svg_datawrapper-y25AT-16k86v8-svg_00000002346399915333766540000014953318323553284231_" transform="translate(0, 589.5)">
				<text transform="matrix(1 0 0 1 14.9307 -15.2194)" class="st21 st22 st23">1.0</text>
				<text transform="matrix(1 0 0 1 80.4204 -15.2194)" class="st21 st22 st23">1.5</text>
				<text transform="matrix(1 0 0 1 145.9097 -15.2194)" class="st21 st22 st23">2.0</text>
				<text transform="matrix(1 0 0 1 211.3994 -15.2194)" class="st21 st22 st23">2.5</text>
				<text transform="matrix(1 0 0 1 276.8887 -15.2194)" class="st21 st22 st23">3.0</text>
				<text transform="matrix(1 0 0 1 342.3779 -15.2194)" class="st21 st22 st23">3.5</text>
				<text transform="matrix(1 0 0 1 407.8672 -15.2194)" class="st21 st22 st23">4.0</text>
			</g>
			<g id="y-base-lines-svg_grid-y-svg_datawrapper-y25AT-1io9s9d-svg_00000023277519920381364440000011685415048110353575_">
			</g>
		</g>
	</g>
	<text transform="matrix(1 0 0 1 22.7132 608.9413)" class="st24 st16 st17">PIB(%)</text>
	<g id="header_00000164506905663664749170000018200568611240015550_">
		<text transform="matrix(1 0 0 1 27.8481 25.9799)" class="st3 st4 st5">Cambios del Promedio del PIB asignado a Salud</text>
	</g>
</g>
</svg>
