<?xml version="1.0" encoding="utf-8"?>
<!-- Generator: Adobe Illustrator 26.5.0, SVG Export Plug-In . SVG Version: 6.00 Build 0)  -->
<svg version="1.1" xmlns="http://www.w3.org/2000/svg" xmlns:xlink="http://www.w3.org/1999/xlink" x="0px" y="0px"
	 viewBox="0 0 612 792" style="enable-background:new 0 0 612 792;" xml:space="preserve">
<style type="text/css">
	.st0{fill:#152A44;}
	.st1{opacity:0.2;fill:#FFEDD5;stroke:#E8E7E7;stroke-width:0.9069;}
	.st2{opacity:0.2;fill:#FFEDD5;stroke:#E8E7E7;stroke-width:0.9069;stroke-dasharray:0.9069,0.9069;}
	.st3{fill:#FFFFFF;}
	.st4{font-family:'Arial-BoldMT';}
	.st5{font-size:19.9522px;}
	.st6{font-family:'ArialMT';}
	.st7{font-size:10.883px;}
	.st8{fill:#7E8DBC;}
	.st9{fill:none;stroke:#7E8DBC;stroke-width:2.7208;}
	.st10{fill:#FAFAFA;}
	.st11{fill:none;stroke:#C22222;stroke-width:2.7208;}
	.st12{fill:#C22222;}
	.st13{fill:#89BF4D;}
	.st14{fill:none;stroke:#89BF4D;stroke-width:2.7208;}
	.st15{fill:#76AD3A;}
	.st16{fill:#878889;}
	.st17{font-size:9.9761px;}
	.st18{fill:#A2A2A1;}
</style>
<g id="Fondo">
	<rect class="st0" width="612" height="792"/>
</g>
<g id="Capa_3">
	<line class="st1" x1="78.6" y1="647.5" x2="78.6" y2="117.4"/>
	<line class="st1" x1="144" y1="647.5" x2="144" y2="117.4"/>
	<line class="st1" x1="209.5" y1="647.5" x2="209.5" y2="117.4"/>
	<line class="st1" x1="275" y1="647.5" x2="275" y2="117.4"/>
	<line class="st1" x1="340.5" y1="647.5" x2="340.5" y2="117.4"/>
	<line class="st1" x1="406" y1="647.5" x2="406" y2="117.4"/>
	<line class="st1" x1="471.5" y1="647.5" x2="471.5" y2="117.4"/>
	<line class="st1" x1="537" y1="647.5" x2="537" y2="117.4"/>
	<line class="st2" x1="61.5" y1="123.7" x2="543.4" y2="123.7"/>
	<line class="st2" x1="61.5" y1="141" x2="543.4" y2="141"/>
	<line class="st2" x1="61.5" y1="157.3" x2="543.4" y2="157.3"/>
	<line class="st2" x1="61.5" y1="173.6" x2="543.4" y2="173.6"/>
	<line class="st2" x1="61.5" y1="190.9" x2="543.4" y2="190.9"/>
	<line class="st2" x1="61.5" y1="207.2" x2="543.4" y2="207.2"/>
	<line class="st2" x1="61.5" y1="224.4" x2="543.4" y2="224.4"/>
	<line class="st2" x1="61.5" y1="240.7" x2="543.4" y2="240.7"/>
	<line class="st2" x1="61.5" y1="257.1" x2="543.4" y2="257.1"/>
	<line class="st2" x1="61.5" y1="274.3" x2="543.4" y2="274.3"/>
	<line class="st2" x1="61.5" y1="290.6" x2="543.4" y2="290.6"/>
	<line class="st2" x1="61.5" y1="306.9" x2="543.4" y2="306.9"/>
	<line class="st2" x1="61.5" y1="324.2" x2="543.4" y2="324.2"/>
	<line class="st2" x1="61.5" y1="340.5" x2="543.4" y2="340.5"/>
	<line class="st2" x1="61.5" y1="357.7" x2="543.4" y2="357.7"/>
	<line class="st2" x1="61.5" y1="374.1" x2="543.4" y2="374.1"/>
	<line class="st2" x1="61.5" y1="390.4" x2="543.4" y2="390.4"/>
	<line class="st2" x1="61.5" y1="407.6" x2="543.4" y2="407.6"/>
	<line class="st2" x1="61.5" y1="423.9" x2="543.4" y2="423.9"/>
	<line class="st2" x1="61.5" y1="441.2" x2="543.4" y2="441.2"/>
	<line class="st2" x1="61.5" y1="457.5" x2="543.4" y2="457.5"/>
	<line class="st2" x1="61.5" y1="473.8" x2="543.4" y2="473.8"/>
	<line class="st2" x1="61.5" y1="491" x2="543.4" y2="491"/>
	<line class="st2" x1="61.5" y1="507.4" x2="543.4" y2="507.4"/>
	<line class="st2" x1="61.5" y1="524.6" x2="543.4" y2="524.6"/>
	<line class="st2" x1="61.5" y1="540.9" x2="543.4" y2="540.9"/>
	<line class="st2" x1="61.5" y1="557.2" x2="543.4" y2="557.2"/>
	<line class="st2" x1="61.5" y1="574.5" x2="543.4" y2="574.5"/>
	<line class="st2" x1="61.5" y1="590.8" x2="543.4" y2="590.8"/>
	<line class="st2" x1="61.5" y1="608" x2="543.4" y2="608"/>
	<line class="st2" x1="61.5" y1="624.4" x2="543.4" y2="624.4"/>
	<line class="st2" x1="61.5" y1="640.7" x2="543.4" y2="640.7"/>
</g>
<g id="Arrow">
	<g id="header-svg_00000065035531696810365800000015792849612794536073_">
		<text transform="matrix(1 0 0 1 9.2495 105.6035)" class="st3 st4 st5">Sexenio 1 vs Sexenio 2 PIB</text>
	</g>
	<g id="chart-svg_00000155830868137943351390000014701317496950799524_">
		<text transform="matrix(1 0 0 1 33.979 128.2769)" class="st3 st6 st7">AGS</text>
		<path class="st8" d="M253.3,122.6h58c1,0,1.8,0.6,1.8,1.4l0,0c0,0.8-0.8,1.4-1.8,1.4h-58c-1,0-1.8-0.6-1.8-1.4l0,0
			C251.4,123.2,252.3,122.6,253.3,122.6z"/>
		<path class="st9" d="M307.1,117.8l6.1,6.1l-6.1,6.1"/>
		<text transform="matrix(1 0 0 1 219.5981 128.4468)" class="st10 st6 st7">  2.32</text>
		<text transform="matrix(1 0 0 1 317.5449 128.4468)" class="st10 st6 st7">2.79</text>
		<text transform="matrix(1 0 0 1 41.8438 144.9551)" class="st3 st6 st7">BC</text>
		<path class="st11" d="M208.2,134.6v12.1"/>
		<text transform="matrix(1 0 0 1 176.3779 145.1255)" class="st12 st6 st7">  1.99</text>
		<text transform="matrix(1 0 0 1 212.7534 145.1255)" class="st12 st6 st7">1.99</text>
		<text transform="matrix(1 0 0 1 34.5854 161.6343)" class="st3 st6 st7">BCS</text>
		<path class="st12" d="M399.9,155.9H433c1,0,1.8,0.6,1.8,1.4l0,0c0,0.8-0.8,1.4-1.8,1.4h-33.1c-1,0-1.8-0.6-1.8-1.4l0,0
			C398.1,156.5,398.9,155.9,399.9,155.9z"/>
		<path class="st11" d="M404.1,151.2l-6.1,6.1l6.1,6.1"/>
		<text transform="matrix(1 0 0 1 439.3555 161.8047)" class="st12 st6 st7">3.72</text>
		<text transform="matrix(1 0 0 1 366.292 161.8047)" class="st12 st6 st7">  3.44</text>
		<text transform="matrix(1 0 0 1 25.519 178.313)" class="st3 st6 st7">CAMP</text>
		<path class="st12" d="M94.8,172.6h82.8c1,0,1.8,0.6,1.8,1.4l0,0c0,0.8-0.8,1.4-1.8,1.4H94.8c-1,0-1.8-0.6-1.8-1.4l0,0
			C93,173.2,93.8,172.6,94.8,172.6z"/>
		<path class="st11" d="M98.9,167.9l-6.1,6.1l6.1,6.1"/>
		<text transform="matrix(1 0 0 1 183.9448 178.4829)" class="st12 st6 st7">1.77</text>
		<text transform="matrix(1 0 0 1 61.1143 178.4829)" class="st12 st6 st7">  1.11</text>
		<text transform="matrix(1 0 0 1 24.9189 194.9922)" class="st3 st6 st7">CDMX</text>
		<path class="st8" d="M326.6,189.3h35.7c1,0,1.8,0.6,1.8,1.4l0,0c0,0.8-0.8,1.4-1.8,1.4h-35.7c-1,0-1.8-0.6-1.8-1.4l0,0
			C324.8,189.9,325.6,189.3,326.6,189.3z"/>
		<path class="st9" d="M358.1,184.5l6.1,6.1l-6.1,6.1"/>
		<text transform="matrix(1 0 0 1 292.9448 195.1616)" class="st10 st6 st7">  2.88</text>
		<text transform="matrix(1 0 0 1 368.6162 195.1616)" class="st10 st6 st7">3.18</text>
		<text transform="matrix(1 0 0 1 30.3604 211.6704)" class="st3 st6 st7">CHIH</text>
		<path class="st13" d="M196.9,205.9h76.3c1,0,1.8,0.6,1.8,1.4l0,0c0,0.8-0.8,1.4-1.8,1.4h-76.3c-1,0-1.8-0.6-1.8-1.4l0,0
			C195.1,206.6,195.9,205.9,196.9,205.9z"/>
		<path class="st14" d="M269.1,201.2l6.1,6.1l-6.1,6.1"/>
		<text transform="matrix(1 0 0 1 163.2842 211.8408)" class="st15 st6 st7">  1.89</text>
		<text transform="matrix(1 0 0 1 279.5537 211.8408)" class="st15 st6 st7">2.50</text>
		<text transform="matrix(1 0 0 1 30.9609 228.3491)" class="st3 st6 st7">CHIS</text>
		<path class="st8" d="M346.3,222.6h89.4c1,0,1.8,0.6,1.8,1.4l0,0c0,0.8-0.8,1.4-1.8,1.4h-89.4c-1,0-1.8-0.6-1.8-1.4l0,0
			C344.4,223.2,345.3,222.6,346.3,222.6z"/>
		<path class="st9" d="M431.5,217.9l6.1,6.1l-6.1,6.1"/>
		<text transform="matrix(1 0 0 1 312.5996 228.5195)" class="st3 st6 st7">  3.03</text>
		<text transform="matrix(1 0 0 1 441.9629 228.5195)" class="st3 st6 st7">3.74</text>
		<text transform="matrix(1 0 0 1 25.519 245.0283)" class="st3 st6 st7">COAH</text>
		<path class="st8" d="M250.6,239.3h1.6c1,0,1.8,0.6,1.8,1.4l0,0c0,0.8-0.8,1.4-1.8,1.4h-1.6c-1,0-1.8-0.6-1.8-1.4l0,0
			C248.8,239.9,249.6,239.3,250.6,239.3z"/>
		<path class="st9" d="M248.1,234.6l6.1,6.1l-6.1,6.1"/>
		<text transform="matrix(1 0 0 1 216.9761 245.1978)" class="st3 st6 st7">  2.30</text>
		<text transform="matrix(1 0 0 1 258.5957 245.1978)" class="st3 st6 st7">2.34</text>
		<text transform="matrix(1 0 0 1 34.5854 261.707)" class="st3 st6 st7">COL</text>
		<path class="st8" d="M371.1,256h60.6c1,0,1.8,0.6,1.8,1.4l0,0c0,0.8-0.8,1.4-1.8,1.4h-60.6c-1,0-1.8-0.6-1.8-1.4l0,0
			C369.3,256.6,370.1,256,371.1,256z"/>
		<path class="st9" d="M427.6,251.3l6.1,6.1l-6.1,6.1"/>
		<text transform="matrix(1 0 0 1 337.4834 261.877)" class="st3 st6 st7">  3.22</text>
		<text transform="matrix(1 0 0 1 438.0371 261.877)" class="st3 st6 st7">3.71</text>
		<text transform="matrix(1 0 0 1 32.1724 278.3853)" class="st3 st6 st7">DGO</text>
		<path class="st8" d="M333.2,272.7h93.3c1,0,1.8,0.6,1.8,1.4l0,0c0,0.8-0.8,1.4-1.8,1.4h-93.3c-1,0-1.8-0.6-1.8-1.4l0,0
			C331.3,273.3,332.2,272.7,333.2,272.7z"/>
		<path class="st9" d="M422.3,267.9l6.1,6.1l-6.1,6.1"/>
		<text transform="matrix(1 0 0 1 299.5059 278.5557)" class="st3 st6 st7">  2.93</text>
		<text transform="matrix(1 0 0 1 432.7939 278.5557)" class="st3 st6 st7">3.67</text>
		<text transform="matrix(1 0 0 1 9.7954 295.0645)" class="st3 st6 st7">EDOMEX</text>
		<path class="st13" d="M168.1,289.3H268c1,0,1.8,0.6,1.8,1.4l0,0c0,0.8-0.8,1.4-1.8,1.4h-99.9c-1,0-1.8-0.6-1.8-1.4l0,0
			C166.3,289.9,167.1,289.3,168.1,289.3z"/>
		<path class="st14" d="M263.8,284.6l6.1,6.1l-6.1,6.1"/>
		<text transform="matrix(1 0 0 1 134.4614 295.2349)" class="st15 st6 st7">  1.67</text>
		<text transform="matrix(1 0 0 1 274.3105 295.2349)" class="st15 st6 st7">2.46</text>
		<text transform="matrix(1 0 0 1 32.1724 311.7432)" class="st3 st6 st7">GRO</text>
		<path class="st13" d="M316.1,306h115.6c1,0,1.8,0.6,1.8,1.4l0,0c0,0.8-0.8,1.4-1.8,1.4H316.1c-1,0-1.8-0.6-1.8-1.4l0,0
			C314.3,306.6,315.1,306,316.1,306z"/>
		<path class="st14" d="M427.6,301.3l6.1,6.1l-6.1,6.1"/>
		<text transform="matrix(1 0 0 1 282.4727 311.9136)" class="st15 st6 st7">  2.80</text>
		<text transform="matrix(1 0 0 1 438.0371 311.9136)" class="st15 st6 st7">3.71</text>
		<text transform="matrix(1 0 0 1 33.5811 328.4224)" class="st3 st6 st7">GTO</text>
		<path class="st8" d="M229.7,322.7h61.9c1,0,1.8,0.6,1.8,1.4l0,0c0,0.8-0.8,1.4-1.8,1.4h-61.9c-1,0-1.8-0.6-1.8-1.4l0,0
			C227.9,323.3,228.7,322.7,229.7,322.7z"/>
		<path class="st9" d="M287.4,318l6.1,6.1l-6.1,6.1"/>
		<text transform="matrix(1 0 0 1 196.0322 328.5918)" class="st3 st6 st7">  2.14</text>
		<text transform="matrix(1 0 0 1 297.8906 328.5918)" class="st3 st6 st7">2.64</text>
		<text transform="matrix(1 0 0 1 32.1724 345.1011)" class="st3 st6 st7">HGO</text>
		<path class="st8" d="M313.5,339.4h93.3c1,0,1.8,0.6,1.8,1.4l0,0c0,0.8-0.8,1.4-1.8,1.4h-93.3c-1,0-1.8-0.6-1.8-1.4l0,0
			C311.7,340,312.5,339.4,313.5,339.4z"/>
		<path class="st9" d="M402.7,334.6l6.1,6.1l-6.1,6.1"/>
		<text transform="matrix(1 0 0 1 279.8511 345.271)" class="st3 st6 st7">  2.78</text>
		<text transform="matrix(1 0 0 1 413.1533 345.271)" class="st3 st6 st7">3.52</text>
		<text transform="matrix(1 0 0 1 38.209 361.7798)" class="st3 st6 st7">JAL</text>
		<path class="st8" d="M259.8,356.1h30.5c1,0,1.8,0.6,1.8,1.4l0,0c0,0.8-0.8,1.4-1.8,1.4h-30.5c-1,0-1.8-0.6-1.8-1.4l0,0
			C258,356.7,258.8,356.1,259.8,356.1z"/>
		<path class="st9" d="M286.1,351.3l6.1,6.1l-6.1,6.1"/>
		<text transform="matrix(1 0 0 1 226.1445 361.9497)" class="st3 st6 st7">  2.37</text>
		<text transform="matrix(1 0 0 1 296.5869 361.9497)" class="st3 st6 st7">2.63</text>
		<text transform="matrix(1 0 0 1 29.1543 378.458)" class="st3 st6 st7">MICH</text>
		<path class="st8" d="M259.8,372.7h73.7c1,0,1.8,0.6,1.8,1.4l0,0c0,0.8-0.8,1.4-1.8,1.4h-73.7c-1,0-1.8-0.6-1.8-1.4l0,0
			C258,373.3,258.8,372.7,259.8,372.7z"/>
		<path class="st9" d="M329.3,368l6.1,6.1l-6.1,6.1"/>
		<text transform="matrix(1 0 0 1 226.1445 378.6289)" class="st3 st6 st7">  2.37</text>
		<text transform="matrix(1 0 0 1 339.8066 378.6289)" class="st3 st6 st7">2.96</text>
		<text transform="matrix(1 0 0 1 31.5723 395.1367)" class="st3 st6 st7">MOR</text>
		<path class="st8" d="M263.7,389.4H323c1,0,1.8,0.6,1.8,1.4l0,0c0,0.8-0.8,1.4-1.8,1.4h-59.2c-1,0-1.8-0.6-1.8-1.4l0,0
			C261.9,390,262.7,389.4,263.7,389.4z"/>
		<path class="st9" d="M318.9,384.7l6.1,6.1l-6.1,6.1"/>
		<text transform="matrix(1 0 0 1 230.0845 395.3066)" class="st3 st6 st7">  2.40</text>
		<text transform="matrix(1 0 0 1 329.3203 395.3066)" class="st3 st6 st7">2.88</text>
		<text transform="matrix(1 0 0 1 35.3926 411.8164)" class="st3 st6 st7">NAY</text>
		<path class="st12" d="M495.6,406.1h6.9c1,0,1.8,0.6,1.8,1.4l0,0c0,0.8-0.8,1.4-1.8,1.4h-6.9c-1,0-1.8-0.6-1.8-1.4l0,0
			C493.8,406.7,494.6,406.1,495.6,406.1z"/>
		<path class="st11" d="M499.7,401.4l-6.1,6.1l6.1,6.1"/>
		<text transform="matrix(1 0 0 1 508.7637 411.9863)" class="st12 st6 st7">4.25</text>
		<text transform="matrix(1 0 0 1 461.915 411.9863)" class="st12 st6 st7">  4.17</text>
		<text transform="matrix(1 0 0 1 43.0503 428.4941)" class="st3 st6 st7">NL</text>
		<path class="st12" d="M183.8,422.8h14.7c1,0,1.8,0.6,1.8,1.4l0,0c0,0.8-0.8,1.4-1.8,1.4h-14.7c-1,0-1.8-0.6-1.8-1.4l0,0
			C182,423.4,182.8,422.8,183.8,422.8z"/>
		<path class="st11" d="M188,418l-6.1,6.1l6.1,6.1"/>
		<text transform="matrix(1 0 0 1 204.9028 428.665)" class="st12 st6 st7">1.93</text>
		<text transform="matrix(1 0 0 1 150.1904 428.665)" class="st12 st6 st7">  1.79</text>
		<text transform="matrix(1 0 0 1 33.979 445.1738)" class="st3 st6 st7">OAX</text>
		<path class="st13" d="M342.3,439.4h115.6c1,0,1.8,0.6,1.8,1.4l0,0c0,0.8-0.8,1.4-1.8,1.4H342.3c-1,0-1.8-0.6-1.8-1.4l0,0
			C340.5,440.1,341.3,439.4,342.3,439.4z"/>
		<path class="st14" d="M453.8,434.7l6.1,6.1l-6.1,6.1"/>
		<text transform="matrix(1 0 0 1 308.6748 445.3438)" class="st15 st6 st7">  3.00</text>
		<text transform="matrix(1 0 0 1 464.2393 445.3438)" class="st15 st6 st7">3.91</text>
		<text transform="matrix(1 0 0 1 34.5854 461.8525)" class="st3 st6 st7">PUE</text>
		<path class="st13" d="M216.6,456.1h81.5c1,0,1.8,0.6,1.8,1.4l0,0c0,0.8-0.8,1.4-1.8,1.4h-81.5c-1,0-1.8-0.6-1.8-1.4l0,0
			C214.8,456.7,215.6,456.1,216.6,456.1z"/>
		<path class="st14" d="M294,451.4l6.1,6.1l-6.1,6.1"/>
		<text transform="matrix(1 0 0 1 182.9248 462.0225)" class="st15 st6 st7">  2.04</text>
		<text transform="matrix(1 0 0 1 304.4375 462.0225)" class="st15 st6 st7">2.69</text>
		<text transform="matrix(1 0 0 1 32.1724 478.5303)" class="st3 st6 st7">QRO</text>
		<path class="st8" d="M170.7,472.8h26.5c1,0,1.8,0.6,1.8,1.4l0,0c0,0.8-0.8,1.4-1.8,1.4h-26.5c-1,0-1.8-0.6-1.8-1.4l0,0
			C168.9,473.4,169.7,472.8,170.7,472.8z"/>
		<path class="st9" d="M193.1,468.1l6.1,6.1l-6.1,6.1"/>
		<text transform="matrix(1 0 0 1 137.083 478.7012)" class="st3 st6 st7">  1.69</text>
		<text transform="matrix(1 0 0 1 203.585 478.7012)" class="st3 st6 st7">1.92</text>
		<text transform="matrix(1 0 0 1 23.7075 495.21)" class="st3 st6 st7">QROO</text>
		<path class="st8" d="M183.8,489.5H209c1,0,1.8,0.6,1.8,1.4l0,0c0,0.8-0.8,1.4-1.8,1.4h-25.2c-1,0-1.8-0.6-1.8-1.4l0,0
			C182,490.1,182.8,489.5,183.8,489.5z"/>
		<path class="st9" d="M204.9,484.8l6.1,6.1l-6.1,6.1"/>
		<text transform="matrix(1 0 0 1 150.1904 495.3809)" class="st3 st6 st7">  1.79</text>
		<text transform="matrix(1 0 0 1 215.375 495.3809)" class="st3 st6 st7">2.01</text>
		<text transform="matrix(1 0 0 1 38.8198 511.8887)" class="st3 st6 st7">SIN</text>
		<path class="st8" d="M371.1,506.2h18.6c1,0,1.8,0.6,1.8,1.4l0,0c0,0.8-0.8,1.4-1.8,1.4h-18.6c-1,0-1.8-0.6-1.8-1.4l0,0
			C369.3,506.8,370.1,506.2,371.1,506.2z"/>
		<path class="st9" d="M385.7,501.4l6.1,6.1l-6.1,6.1"/>
		<text transform="matrix(1 0 0 1 337.4834 512.0586)" class="st3 st6 st7">  3.22</text>
		<text transform="matrix(1 0 0 1 396.1211 512.0586)" class="st3 st6 st7">3.39</text>
		<text transform="matrix(1 0 0 1 36.3916 528.5684)" class="st3 st6 st7">SLP</text>
		<path class="st8" d="M259.8,522.8h55.3c1,0,1.8,0.6,1.8,1.4l0,0c0,0.8-0.8,1.4-1.8,1.4h-55.3c-1,0-1.8-0.6-1.8-1.4l0,0
			C258,523.5,258.8,522.8,259.8,522.8z"/>
		<path class="st9" d="M311,518.1l6.1,6.1l-6.1,6.1"/>
		<text transform="matrix(1 0 0 1 226.1445 528.7373)" class="st3 st6 st7">  2.37</text>
		<text transform="matrix(1 0 0 1 321.4707 528.7373)" class="st3 st6 st7">2.82</text>
		<text transform="matrix(1 0 0 1 33.3784 545.2461)" class="st3 st6 st7">SON</text>
		<path class="st8" d="M275.5,539.5h14.7c1,0,1.8,0.6,1.8,1.4l0,0c0,0.8-0.8,1.4-1.8,1.4h-14.7c-1,0-1.8-0.6-1.8-1.4l0,0
			C273.7,540.1,274.5,539.5,275.5,539.5z"/>
		<path class="st9" d="M286.1,534.8l6.1,6.1l-6.1,6.1"/>
		<text transform="matrix(1 0 0 1 241.8745 545.417)" class="st3 st6 st7">  2.49</text>
		<text transform="matrix(1 0 0 1 296.5869 545.417)" class="st3 st6 st7">2.63</text>
		<text transform="matrix(1 0 0 1 36.604 561.9248)" class="st3 st6 st7">TAB</text>
		<path class="st8" d="M405.2,556.2h46.2c1,0,1.8,0.6,1.8,1.4l0,0c0,0.8-0.8,1.4-1.8,1.4h-46.2c-1,0-1.8-0.6-1.8-1.4l0,0
			C403.4,556.8,404.2,556.2,405.2,556.2z"/>
		<path class="st9" d="M447.2,551.5l6.1,6.1l-6.1,6.1"/>
		<text transform="matrix(1 0 0 1 371.5352 562.0947)" class="st3 st6 st7">  3.48</text>
		<text transform="matrix(1 0 0 1 457.6924 562.0947)" class="st3 st6 st7">3.86</text>
		<text transform="matrix(1 0 0 1 20.2798 578.6045)" class="st3 st6 st7">TAMPS</text>
		<path class="st8" d="M275.5,572.9h10.8c1,0,1.8,0.6,1.8,1.4l0,0c0,0.8-0.8,1.4-1.8,1.4h-10.8c-1,0-1.8-0.6-1.8-1.4l0,0
			C273.7,573.5,274.5,572.9,275.5,572.9z"/>
		<path class="st9" d="M282.2,568.1l6.1,6.1l-6.1,6.1"/>
		<text transform="matrix(1 0 0 1 241.8745 578.7734)" class="st3 st6 st7">  2.49</text>
		<text transform="matrix(1 0 0 1 292.6475 578.7734)" class="st3 st6 st7">2.60</text>
		<text transform="matrix(1 0 0 1 29.7437 595.2822)" class="st3 st6 st7">TLAX</text>
		<path class="st8" d="M342.3,589.6h92c1,0,1.8,0.6,1.8,1.4l0,0c0,0.8-0.8,1.4-1.8,1.4h-92c-1,0-1.8-0.6-1.8-1.4l0,0
			C340.5,590.2,341.3,589.6,342.3,589.6z"/>
		<path class="st9" d="M430.2,584.8l6.1,6.1l-6.1,6.1"/>
		<text transform="matrix(1 0 0 1 308.6748 595.4531)" class="st3 st6 st7">  3.00</text>
		<text transform="matrix(1 0 0 1 440.6592 595.4531)" class="st3 st6 st7">3.73</text>
		<text transform="matrix(1 0 0 1 34.5854 611.9619)" class="st3 st6 st7">VER</text>
		<path class="st8" d="M355.4,606.2h55.3c1,0,1.8,0.6,1.8,1.4l0,0c0,0.8-0.8,1.4-1.8,1.4h-55.3c-1,0-1.8-0.6-1.8-1.4l0,0
			C353.6,606.8,354.4,606.2,355.4,606.2z"/>
		<path class="st9" d="M406.6,601.5l6.1,6.1l-6.1,6.1"/>
		<text transform="matrix(1 0 0 1 321.7686 612.1309)" class="st3 st6 st7">  3.10</text>
		<text transform="matrix(1 0 0 1 417.0791 612.1309)" class="st3 st6 st7">3.55</text>
		<text transform="matrix(1 0 0 1 33.9844 628.6406)" class="st3 st6 st7">YUC</text>
		<path class="st8" d="M432.7,622.9h25.2c1,0,1.8,0.6,1.8,1.4l0,0c0,0.8-0.8,1.4-1.8,1.4h-25.2c-1,0-1.8-0.6-1.8-1.4l0,0
			C430.9,623.5,431.7,622.9,432.7,622.9z"/>
		<path class="st9" d="M453.8,618.2l6.1,6.1l-6.1,6.1"/>
		<text transform="matrix(1 0 0 1 399.04 628.8105)" class="st3 st6 st7">  3.69</text>
		<text transform="matrix(1 0 0 1 464.2393 628.8105)" class="st3 st6 st7">3.91</text>
		<text transform="matrix(1 0 0 1 35.1963 645.3184)" class="st3 st6 st7">ZAC</text>
		<path class="st8" d="M338.4,639.6h107.7c1,0,1.8,0.6,1.8,1.4l0,0c0,0.8-0.8,1.4-1.8,1.4H338.4c-1,0-1.8-0.6-1.8-1.4l0,0
			C336.6,640.2,337.4,639.6,338.4,639.6z"/>
		<path class="st9" d="M442,634.9l6.1,6.1L442,647"/>
		<text transform="matrix(1 0 0 1 304.7349 645.4893)" class="st3 st6 st7">  2.97</text>
		<text transform="matrix(1 0 0 1 452.4492 645.4893)" class="st3 st6 st7">3.82</text>
	</g>
	<g id="footer-svg_00000168103868864910474060000001520366719560021386_">
		<text transform="matrix(1 0 0 1 9.2495 693.2871)" class="st16 st6 st17">Created with</text>
		<text transform="matrix(1 0 0 1 67.7334 693.2871)" class="st16 st6 st17">Datawrapper</text>
	</g>
	<text transform="matrix(1 0 0 1 546.0139 128.4479)" class="st10 st6 st7">+20%</text>
	<text transform="matrix(1 0 0 1 545.4044 144.8439)" class="st12 st6 st7">+0%</text>
	<text transform="matrix(1 0 0 1 545.4044 161.5226)" class="st12 st6 st7">-7.5%</text>
	<text transform="matrix(1 0 0 1 545.4039 178.2013)" class="st12 st6 st7">-37.3%</text>
	<text transform="matrix(1 0 0 1 545.4044 194.88)" class="st10 st6 st7">+10%</text>
	<text transform="matrix(1 0 0 1 545.4044 211.5592)" class="st15 st6 st7">+32%</text>
	<text transform="matrix(1 0 0 1 545.4044 228.2379)" class="st3 st6 st7">+23%</text>
	<text transform="matrix(1 0 0 1 545.4044 244.9167)" class="st3 st6 st7">+2%</text>
	<text transform="matrix(1 0 0 1 545.4044 261.5954)" class="st3 st6 st7">+15%</text>
	<text transform="matrix(1 0 0 1 545.4044 278.2741)" class="st3 st6 st7">+25%</text>
	<text transform="matrix(1 0 0 1 545.4044 294.9528)" class="st15 st6 st7">+47%</text>
	<text transform="matrix(1 0 0 1 545.4044 311.632)" class="st15 st6 st7">+33%</text>
	<text transform="matrix(1 0 0 1 545.4044 328.3107)" class="st3 st6 st7">+23%</text>
	<text transform="matrix(1 0 0 1 545.4044 344.9894)" class="st3 st6 st7">+27%</text>
	<text transform="matrix(1 0 0 1 545.4044 361.6681)" class="st3 st6 st7">+11%</text>
	<text transform="matrix(1 0 0 1 545.4044 378.3473)" class="st3 st6 st7">+25%</text>
	<text transform="matrix(1 0 0 1 545.4044 395.026)" class="st3 st6 st7">+20%</text>
	<text transform="matrix(1 0 0 1 545.4044 411.7047)" class="st12 st6 st7">-1.9%</text>
	<text transform="matrix(1 0 0 1 545.4044 428.3835)" class="st12 st6 st7">-7.3%</text>
	<text transform="matrix(1 0 0 1 545.4044 445.0622)" class="st15 st6 st7">+30%</text>
	<text transform="matrix(1 0 0 1 545.4044 461.7409)" class="st15 st6 st7">+32%</text>
	<text transform="matrix(1 0 0 1 545.4044 478.4196)" class="st3 st6 st7">+14%</text>
	<text transform="matrix(1 0 0 1 545.4041 495.0983)" class="st3 st6 st7">+12%</text>
	<text transform="matrix(1 0 0 1 545.4041 511.777)" class="st3 st6 st7">+5%</text>
	<text transform="matrix(1 0 0 1 545.4041 528.4557)" class="st3 st6 st7">+19%</text>
	<text transform="matrix(1 0 0 1 545.4041 545.1344)" class="st3 st6 st7">+6%</text>
	<text transform="matrix(1 0 0 1 545.4041 561.8131)" class="st3 st6 st7">+11%</text>
	<text transform="matrix(1 0 0 1 545.4041 578.4918)" class="st3 st6 st7">+4%</text>
	<text transform="matrix(1 0 0 1 545.4041 595.1715)" class="st3 st6 st7">+24%</text>
	<text transform="matrix(1 0 0 1 545.4041 611.8502)" class="st3 st6 st7">+15%</text>
	<text transform="matrix(1 0 0 1 545.4041 628.5289)" class="st3 st6 st7">+6%</text>
	<text transform="matrix(1 0 0 1 545.4041 645.2076)" class="st3 st6 st7">+29%</text>
	<g id="grid-container-svg_00000016070902589944529250000002749206424454427060_" transform="translate(57.60938, 35)">
		<g id="grid-svg_00000166665718327356406770000004914190962046736016_">
			
				<g id="x-tick-labels-svg_grid-x-svg_number-axis-svg_datawrapper-y25AT-16k86v8-svg_00000002346399915333766540000014953318323553284231_" transform="translate(0, 589.5)">
				<text transform="matrix(1 0 0 1 14.332 38.4043)" class="st18 st6 st7">1.0</text>
				<text transform="matrix(1 0 0 1 79.8218 38.4043)" class="st18 st6 st7">1.5</text>
				<text transform="matrix(1 0 0 1 145.311 38.4043)" class="st18 st6 st7">2.0</text>
				<text transform="matrix(1 0 0 1 210.8008 38.4043)" class="st18 st6 st7">2.5</text>
				<text transform="matrix(1 0 0 1 276.29 38.4043)" class="st18 st6 st7">3.0</text>
				<text transform="matrix(1 0 0 1 341.7793 38.4043)" class="st18 st6 st7">3.5</text>
				<text transform="matrix(1 0 0 1 407.2686 38.4043)" class="st18 st6 st7">4.0</text>
			</g>
			<g id="y-base-lines-svg_grid-y-svg_datawrapper-y25AT-1io9s9d-svg_00000023277519920381364440000011685415048110353575_">
			</g>
		</g>
	</g>
</g>
<g id="Capa_4">
</g>
</svg>
