<?xml version="1.0" encoding="utf-8"?>
<!-- Generator: Adobe Illustrator 26.5.0, SVG Export Plug-In . SVG Version: 6.00 Build 0)  -->
<svg version="1.1" id="S1vsS2" xmlns="http://www.w3.org/2000/svg" xmlns:xlink="http://www.w3.org/1999/xlink" x="0px" y="0px"
	 viewBox="0 0 612.3 670" style="enable-background:new 0 0 612.3 670;" xml:space="preserve">
<g id="Fondo">
	<rect x="-0.2" style="fill:#0B2A46;" width="613.6" height="670"/>
</g>
<g id="Grid">
	
		<line style="opacity:0.2;fill:none;stroke:#E8E7E7;stroke-width:0.9069;enable-background:new    ;" x1="86.2" y1="611.9" x2="86.2" y2="81.8"/>
	
		<line style="opacity:0.2;fill:none;stroke:#E8E7E7;stroke-width:0.9069;enable-background:new    ;" x1="151.6" y1="611.9" x2="151.6" y2="81.8"/>
	
		<line style="opacity:0.2;fill:none;stroke:#E8E7E7;stroke-width:0.9069;enable-background:new    ;" x1="217.1" y1="611.9" x2="217.1" y2="81.8"/>
	
		<line style="opacity:0.2;fill:none;stroke:#E8E7E7;stroke-width:0.9069;enable-background:new    ;" x1="282.6" y1="611.9" x2="282.6" y2="81.8"/>
	
		<line style="opacity:0.2;fill:none;stroke:#E8E7E7;stroke-width:0.9069;enable-background:new    ;" x1="348.1" y1="611.9" x2="348.1" y2="81.8"/>
	
		<line style="opacity:0.2;fill:none;stroke:#E8E7E7;stroke-width:0.9069;enable-background:new    ;" x1="413.6" y1="611.9" x2="413.6" y2="81.8"/>
	
		<line style="opacity:0.2;fill:none;stroke:#E8E7E7;stroke-width:0.9069;enable-background:new    ;" x1="479.1" y1="611.9" x2="479.1" y2="81.8"/>
	
		<line style="opacity:0.2;fill:none;stroke:#E8E7E7;stroke-width:0.9069;enable-background:new    ;" x1="544.6" y1="611.9" x2="544.6" y2="81.8"/>
	
		<line style="opacity:0.2;fill:none;stroke:#E8E7E7;stroke-width:0.9069;stroke-dasharray:0.9069,0.9069;enable-background:new    ;" x1="69.1" y1="88.1" x2="551" y2="88.1"/>
	
		<line style="opacity:0.2;fill:none;stroke:#E8E7E7;stroke-width:0.9069;stroke-dasharray:0.9069,0.9069;enable-background:new    ;" x1="69.1" y1="105.3" x2="551" y2="105.3"/>
	
		<line style="opacity:0.2;fill:none;stroke:#E8E7E7;stroke-width:0.9069;stroke-dasharray:0.9069,0.9069;enable-background:new    ;" x1="69.1" y1="121.7" x2="551" y2="121.7"/>
	
		<line style="opacity:0.2;fill:none;stroke:#E8E7E7;stroke-width:0.9069;stroke-dasharray:0.9069,0.9069;enable-background:new    ;" x1="69.1" y1="138" x2="551" y2="138"/>
	
		<line style="opacity:0.2;fill:none;stroke:#E8E7E7;stroke-width:0.9069;stroke-dasharray:0.9069,0.9069;enable-background:new    ;" x1="69.1" y1="155.2" x2="551" y2="155.2"/>
	
		<line style="opacity:0.2;fill:none;stroke:#E8E7E7;stroke-width:0.9069;stroke-dasharray:0.9069,0.9069;enable-background:new    ;" x1="69.1" y1="171.6" x2="551" y2="171.6"/>
	
		<line style="opacity:0.2;fill:none;stroke:#E8E7E7;stroke-width:0.9069;stroke-dasharray:0.9069,0.9069;enable-background:new    ;" x1="69.1" y1="188.8" x2="551" y2="188.8"/>
	
		<line style="opacity:0.2;fill:none;stroke:#E8E7E7;stroke-width:0.9069;stroke-dasharray:0.9069,0.9069;enable-background:new    ;" x1="69.1" y1="205.1" x2="551" y2="205.1"/>
	
		<line style="opacity:0.2;fill:none;stroke:#E8E7E7;stroke-width:0.9069;stroke-dasharray:0.9069,0.9069;enable-background:new    ;" x1="69.1" y1="221.4" x2="551" y2="221.4"/>
	
		<line style="opacity:0.2;fill:none;stroke:#E8E7E7;stroke-width:0.9069;stroke-dasharray:0.9069,0.9069;enable-background:new    ;" x1="69.1" y1="238.7" x2="551" y2="238.7"/>
	
		<line style="opacity:0.2;fill:none;stroke:#E8E7E7;stroke-width:0.9069;stroke-dasharray:0.9069,0.9069;enable-background:new    ;" x1="69.1" y1="255" x2="551" y2="255"/>
	
		<line style="opacity:0.2;fill:none;stroke:#E8E7E7;stroke-width:0.9069;stroke-dasharray:0.9069,0.9069;enable-background:new    ;" x1="69.1" y1="271.3" x2="551" y2="271.3"/>
	
		<line style="opacity:0.2;fill:none;stroke:#E8E7E7;stroke-width:0.9069;stroke-dasharray:0.9069,0.9069;enable-background:new    ;" x1="69.1" y1="288.5" x2="551" y2="288.5"/>
	
		<line style="opacity:0.2;fill:none;stroke:#E8E7E7;stroke-width:0.9069;stroke-dasharray:0.9069,0.9069;enable-background:new    ;" x1="69.1" y1="304.9" x2="551" y2="304.9"/>
	
		<line style="opacity:0.2;fill:none;stroke:#E8E7E7;stroke-width:0.9069;stroke-dasharray:0.9069,0.9069;enable-background:new    ;" x1="69.1" y1="322.1" x2="551" y2="322.1"/>
	
		<line style="opacity:0.2;fill:none;stroke:#E8E7E7;stroke-width:0.9069;stroke-dasharray:0.9069,0.9069;enable-background:new    ;" x1="69.1" y1="338.4" x2="551" y2="338.4"/>
	
		<line style="opacity:0.2;fill:none;stroke:#E8E7E7;stroke-width:0.9069;stroke-dasharray:0.9069,0.9069;enable-background:new    ;" x1="69.1" y1="354.8" x2="551" y2="354.8"/>
	
		<line style="opacity:0.2;fill:none;stroke:#E8E7E7;stroke-width:0.9069;stroke-dasharray:0.9069,0.9069;enable-background:new    ;" x1="69.1" y1="372" x2="551" y2="372"/>
	
		<line style="opacity:0.2;fill:none;stroke:#E8E7E7;stroke-width:0.9069;stroke-dasharray:0.9069,0.9069;enable-background:new    ;" x1="69.1" y1="388.3" x2="551" y2="388.3"/>
	
		<line style="opacity:0.2;fill:none;stroke:#E8E7E7;stroke-width:0.9069;stroke-dasharray:0.9069,0.9069;enable-background:new    ;" x1="69.1" y1="405.5" x2="551" y2="405.5"/>
	
		<line style="opacity:0.2;fill:none;stroke:#E8E7E7;stroke-width:0.9069;stroke-dasharray:0.9069,0.9069;enable-background:new    ;" x1="69.1" y1="421.9" x2="551" y2="421.9"/>
	
		<line style="opacity:0.2;fill:none;stroke:#E8E7E7;stroke-width:0.9069;stroke-dasharray:0.9069,0.9069;enable-background:new    ;" x1="69.1" y1="438.2" x2="551" y2="438.2"/>
	
		<line style="opacity:0.2;fill:none;stroke:#E8E7E7;stroke-width:0.9069;stroke-dasharray:0.9069,0.9069;enable-background:new    ;" x1="69.1" y1="455.4" x2="551" y2="455.4"/>
	
		<line style="opacity:0.2;fill:none;stroke:#E8E7E7;stroke-width:0.9069;stroke-dasharray:0.9069,0.9069;enable-background:new    ;" x1="69.1" y1="471.7" x2="551" y2="471.7"/>
	
		<line style="opacity:0.2;fill:none;stroke:#E8E7E7;stroke-width:0.9069;stroke-dasharray:0.9069,0.9069;enable-background:new    ;" x1="69.1" y1="489" x2="551" y2="489"/>
	
		<line style="opacity:0.2;fill:none;stroke:#E8E7E7;stroke-width:0.9069;stroke-dasharray:0.9069,0.9069;enable-background:new    ;" x1="69.1" y1="505.3" x2="551" y2="505.3"/>
	
		<line style="opacity:0.2;fill:none;stroke:#E8E7E7;stroke-width:0.9069;stroke-dasharray:0.9069,0.9069;enable-background:new    ;" x1="69.1" y1="521.6" x2="551" y2="521.6"/>
	
		<line style="opacity:0.2;fill:none;stroke:#E8E7E7;stroke-width:0.9069;stroke-dasharray:0.9069,0.9069;enable-background:new    ;" x1="69.1" y1="538.9" x2="551" y2="538.9"/>
	
		<line style="opacity:0.2;fill:none;stroke:#E8E7E7;stroke-width:0.9069;stroke-dasharray:0.9069,0.9069;enable-background:new    ;" x1="69.1" y1="555.2" x2="551" y2="555.2"/>
	
		<line style="opacity:0.2;fill:none;stroke:#E8E7E7;stroke-width:0.9069;stroke-dasharray:0.9069,0.9069;enable-background:new    ;" x1="69.1" y1="572.4" x2="551" y2="572.4"/>
	
		<line style="opacity:0.2;fill:none;stroke:#E8E7E7;stroke-width:0.9069;stroke-dasharray:0.9069,0.9069;enable-background:new    ;" x1="69.1" y1="588.7" x2="551" y2="588.7"/>
	
		<line style="opacity:0.2;fill:none;stroke:#E8E7E7;stroke-width:0.9069;stroke-dasharray:0.9069,0.9069;enable-background:new    ;" x1="69.1" y1="605.1" x2="551" y2="605.1"/>
</g>
<g id="Arrow">
	<g id="header">
		<text transform="matrix(1 0 0 1 207.6414 56.8311)" style="fill:#FFFFFF; font-family:'Montserrat-ExtraBold',sans-serif; font-size:20px;">Sexenio 1 a Sexenio 2</text>
	</g>
	<g id="chart">
		<path style="fill:#506CA6;" d="M260.9,86.9h58c1,0,1.8,0.6,1.8,1.4l0,0c0,0.8-0.8,1.4-1.8,1.4h-58c-1,0-1.8-0.6-1.8-1.4l0,0
			C259,87.5,259.9,86.9,260.9,86.9z"/>
		<path style="fill:none;stroke:#506CA6;stroke-width:2.7208;" d="M314.7,82.2l6.1,6.1l-6.1,6.1"/>
		<text transform="matrix(1 0 0 1 227.1968 92.8231)" style="fill:#FAFAFA; font-family:'Montserrat-Medium',sans-serif; font-size:11px;">  2.32</text>
		<text transform="matrix(1 0 0 1 325.1436 92.8231)" style="fill:#FAFAFA; font-family:'Montserrat-Medium',sans-serif; font-size:11px;">2.79</text>
		<path style="fill:none;stroke:#CF5240;stroke-width:2.7208;" d="M215.8,98.9V111"/>
		<text transform="matrix(1 0 0 1 183.9766 109.5018)" style="fill:#CF5240; font-family:'Montserrat-Medium',sans-serif; font-size:11px;">  1.99</text>
		<text transform="matrix(1 0 0 1 220.3521 109.5018)" style="fill:#CF5240; font-family:'Montserrat-Medium',sans-serif; font-size:11px;">1.99</text>
		<path style="fill:#CF5240;" d="M407.5,120.3h33.1c1,0,1.8,0.6,1.8,1.4l0,0c0,0.8-0.8,1.4-1.8,1.4h-33.1c-1,0-1.8-0.6-1.8-1.4l0,0
			C405.7,120.9,406.5,120.3,407.5,120.3z"/>
		<path style="fill:none;stroke:#CF5240;stroke-width:2.7208;" d="M411.7,115.6l-6.1,6.1l6.1,6.1"/>
		<text transform="matrix(1 0 0 1 446.9541 126.181)" style="fill:#CF5240; font-family:'Montserrat-Medium',sans-serif; font-size:11px;">3.72</text>
		<text transform="matrix(1 0 0 1 373.8906 126.181)" style="fill:#CF5240; font-family:'Montserrat-Medium',sans-serif; font-size:11px;">  3.44</text>
		<path style="fill:#CF5240;" d="M102.4,137h82.8c1,0,1.8,0.6,1.8,1.4l0,0c0,0.8-0.8,1.4-1.8,1.4h-82.8c-1,0-1.8-0.6-1.8-1.4l0,0
			C100.6,137.6,101.4,137,102.4,137z"/>
		<path style="fill:none;stroke:#CF5240;stroke-width:2.7208;" d="M106.5,132.2l-6.1,6.1l6.1,6.1"/>
		<text transform="matrix(1 0 0 1 191.5435 142.8593)" style="fill:#CF5240; font-family:'Montserrat-Medium',sans-serif; font-size:11px;">1.77</text>
		<text transform="matrix(1 0 0 1 76.7129 142.8593)" style="fill:#CF5240; font-family:'Montserrat-Medium',sans-serif; font-size:11px;">  1.11</text>
		<path style="fill:#506CA6;" d="M334.2,153.6h35.7c1,0,1.8,0.6,1.8,1.4l0,0c0,0.8-0.8,1.4-1.8,1.4h-35.7c-1,0-1.8-0.6-1.8-1.4l0,0
			C332.4,154.3,333.2,153.6,334.2,153.6z"/>
		<path style="fill:none;stroke:#506CA6;stroke-width:2.7208;" d="M365.7,148.9l6.1,6.1l-6.1,6.1"/>
		<text transform="matrix(1 0 0 1 300.5435 159.538)" style="fill:#FAFAFA; font-family:'Montserrat-Medium',sans-serif; font-size:11px;">  2.88</text>
		<text transform="matrix(1 0 0 1 376.2148 159.538)" style="fill:#FAFAFA; font-family:'Montserrat-Medium',sans-serif; font-size:11px;">3.18</text>
		<path style="fill:#89BF4D;" d="M204.5,170.3h76.3c1,0,1.8,0.6,1.8,1.4l0,0c0,0.8-0.8,1.4-1.8,1.4h-76.3c-1,0-1.8-0.6-1.8-1.4l0,0
			C202.7,170.9,203.5,170.3,204.5,170.3z"/>
		<path style="fill:none;stroke:#89BF4D;stroke-width:2.7208;" d="M276.7,165.6l6.1,6.1l-6.1,6.1"/>
		<text transform="matrix(1 0 0 1 173.8828 176.2172)" style="fill:#76AD3A; font-family:'Montserrat-Medium',sans-serif; font-size:11px;">  1.89</text>
		<text transform="matrix(1 0 0 1 287.1523 176.2172)" style="fill:#76AD3A; font-family:'Montserrat-Medium',sans-serif; font-size:11px;">2.50</text>
		<path style="fill:#506CA6;" d="M353.9,187h89.4c1,0,1.8,0.6,1.8,1.4l0,0c0,0.8-0.8,1.4-1.8,1.4h-89.4c-1,0-1.8-0.6-1.8-1.4l0,0
			C352,187.6,352.9,187,353.9,187z"/>
		<path style="fill:none;stroke:#506CA6;stroke-width:2.7208;" d="M439.1,182.3l6.1,6.1l-6.1,6.1"/>
		<text transform="matrix(1 0 0 1 320.1982 192.8959)" style="fill:#FFFFFF; font-family:'Montserrat-Medium',sans-serif; font-size:11px;">  3.03</text>
		<text transform="matrix(1 0 0 1 449.5615 192.8959)" style="fill:#FFFFFF; font-family:'Montserrat-Medium',sans-serif; font-size:11px;">3.74</text>
		<path style="fill:#506CA6;" d="M258.2,203.7h1.6c1,0,1.8,0.6,1.8,1.4l0,0c0,0.8-0.8,1.4-1.8,1.4h-1.6c-1,0-1.8-0.6-1.8-1.4l0,0
			C256.4,204.3,257.2,203.7,258.2,203.7z"/>
		<path style="fill:none;stroke:#506CA6;stroke-width:2.7208;" d="M255.7,198.9l6.1,6.1l-6.1,6.1"/>
		<text transform="matrix(1 0 0 1 224.5747 209.5741)" style="fill:#FFFFFF; font-family:'Montserrat-Medium',sans-serif; font-size:11px;">  2.30</text>
		<text transform="matrix(1 0 0 1 266.1943 209.5741)" style="fill:#FFFFFF; font-family:'Montserrat-Medium',sans-serif; font-size:11px;">2.34</text>
		<path style="fill:#506CA6;" d="M378.7,220.4h60.6c1,0,1.8,0.6,1.8,1.4l0,0c0,0.8-0.8,1.4-1.8,1.4h-60.6c-1,0-1.8-0.6-1.8-1.4l0,0
			C376.9,221,377.7,220.4,378.7,220.4z"/>
		<path style="fill:none;stroke:#506CA6;stroke-width:2.7208;" d="M435.2,215.6l6.1,6.1l-6.1,6.1"/>
		<text transform="matrix(1 0 0 1 345.082 226.2533)" style="fill:#FFFFFF; font-family:'Montserrat-Medium',sans-serif; font-size:11px;">  3.22</text>
		<text transform="matrix(1 0 0 1 445.6357 226.2533)" style="fill:#FFFFFF; font-family:'Montserrat-Medium',sans-serif; font-size:11px;">3.71</text>
		<path style="fill:#506CA6;" d="M340.8,237h93.3c1,0,1.8,0.6,1.8,1.4l0,0c0,0.8-0.8,1.4-1.8,1.4h-93.3c-1,0-1.8-0.6-1.8-1.4l0,0
			C338.9,237.6,339.8,237,340.8,237z"/>
		<path style="fill:none;stroke:#506CA6;stroke-width:2.7208;" d="M429.9,232.3l6.1,6.1l-6.1,6.1"/>
		<text transform="matrix(1 0 0 1 307.1045 242.932)" style="fill:#FFFFFF; font-family:'Montserrat-Medium',sans-serif; font-size:11px;">  2.93</text>
		<text transform="matrix(1 0 0 1 440.3926 242.932)" style="fill:#FFFFFF; font-family:'Montserrat-Medium',sans-serif; font-size:11px;">3.67</text>
		<path style="fill:#89BF4D;" d="M323.7,253.722h115.6c1,0,1.8,0.6,1.8,1.4l0,0c0,0.8-0.8,1.4-1.8,1.4H323.7c-1,0-1.8-0.6-1.8-1.4
			l0,0C321.9,254.322,322.7,253.722,323.7,253.722z"/>
		<path style="fill:none;stroke:#89BF4D;stroke-width:2.7208;" d="M435.2,249.022l6.1,6.1l-6.1,6.1"/>
		<text transform="matrix(1 0 0 1 290.0713 259.6117)" style="fill:#76AD3A; font-family:'Montserrat-Medium',sans-serif; font-size:11px;">  2.80</text>
		<text transform="matrix(1 0 0 1 445.6357 259.6117)" style="fill:#76AD3A; font-family:'Montserrat-Medium',sans-serif; font-size:11px;">3.71</text>
		<path style="fill:#506CA6;" d="M237.3,270.422h61.9c1,0,1.8,0.6,1.8,1.4l0,0c0,0.8-0.8,1.4-1.8,1.4h-61.9c-1,0-1.8-0.6-1.8-1.4
			l0,0C235.5,271.022,236.3,270.422,237.3,270.422z"/>
		<path style="fill:none;stroke:#506CA6;stroke-width:2.7208;" d="M295,265.622l6.1,6.1l-6.1,6.1"/>
		<text transform="matrix(1 0 0 1 205.6309 276.2899)" style="fill:#FFFFFF; font-family:'Montserrat-Medium',sans-serif; font-size:11px;">  2.14</text>
		<text transform="matrix(1 0 0 1 305.4893 276.2899)" style="fill:#FFFFFF; font-family:'Montserrat-Medium',sans-serif; font-size:11px;">2.64</text>
		<path style="fill:#506CA6;" d="M321.1,287.122h93.3c1,0,1.8,0.6,1.8,1.4l0,0c0,0.8-0.8,1.4-1.8,1.4h-93.3c-1,0-1.8-0.6-1.8-1.4
			l0,0C319.3,287.722,320.1,287.122,321.1,287.122z"/>
		<path style="fill:none;stroke:#506CA6;stroke-width:2.7208;" d="M410.3,282.322l6.1,6.1l-6.1,6.1"/>
		<text transform="matrix(1 0 0 1 287.4497 292.9691)" style="fill:#FFFFFF; font-family:'Montserrat-Medium',sans-serif; font-size:11px;">  2.78</text>
		<text transform="matrix(1 0 0 1 420.752 292.9691)" style="fill:#FFFFFF; font-family:'Montserrat-Medium',sans-serif; font-size:11px;">3.52</text>
		<path style="fill:#506CA6;" d="M267.4,303.722h30.5c1,0,1.8,0.6,1.8,1.4l0,0c0,0.8-0.8,1.4-1.8,1.4h-30.5c-1,0-1.8-0.6-1.8-1.4
			l0,0C265.6,304.322,266.4,303.722,267.4,303.722z"/>
		<path style="fill:none;stroke:#506CA6;stroke-width:2.7208;" d="M293.7,299.022l6.1,6.1l-6.1,6.1"/>
		<text transform="matrix(1 0 0 1 233.7432 309.6478)" style="fill:#FFFFFF; font-family:'Montserrat-Medium',sans-serif; font-size:11px;">  2.37</text>
		<text transform="matrix(1 0 0 1 304.1855 309.6478)" style="fill:#FFFFFF; font-family:'Montserrat-Medium',sans-serif; font-size:11px;">2.63</text>
		<path style="fill:#506CA6;" d="M267.4,337.1h73.7c1,0,1.8,0.6,1.8,1.4l0,0c0,0.8-0.8,1.4-1.8,1.4h-73.7c-1,0-1.8-0.6-1.8-1.4l0,0
			C265.6,337.7,266.4,337.1,267.4,337.1z"/>
		<path style="fill:none;stroke:#506CA6;stroke-width:2.7208;" d="M336.9,332.4l6.1,6.1l-6.1,6.1"/>
		<text transform="matrix(1 0 0 1 233.7432 343.0052)" style="fill:#FFFFFF; font-family:'Montserrat-Medium',sans-serif; font-size:11px;">  2.37</text>
		<text transform="matrix(1 0 0 1 347.4053 343.0052)" style="fill:#FFFFFF; font-family:'Montserrat-Medium',sans-serif; font-size:11px;">2.96</text>
		<path style="fill:#506CA6;" d="M271.3,353.8h59.2c1,0,1.8,0.6,1.8,1.4l0,0c0,0.8-0.8,1.4-1.8,1.4h-59.2c-1,0-1.8-0.6-1.8-1.4l0,0
			C269.5,354.4,270.3,353.8,271.3,353.8z"/>
		<path style="fill:none;stroke:#506CA6;stroke-width:2.7208;" d="M326.4,349.1l6.1,6.1l-6.1,6.1"/>
		<text transform="matrix(1 0 0 1 237.6831 359.683)" style="fill:#FFFFFF; font-family:'Montserrat-Medium',sans-serif; font-size:11px;">  2.40</text>
		<text transform="matrix(1 0 0 1 336.9189 359.683)" style="fill:#FFFFFF; font-family:'Montserrat-Medium',sans-serif; font-size:11px;">2.88</text>
		<path style="fill:#CF5240;" d="M503.2,370.5h6.9c1,0,1.8,0.6,1.8,1.4l0,0c0,0.8-0.8,1.4-1.8,1.4h-6.9c-1,0-1.8-0.6-1.8-1.4l0,0
			C501.4,371.1,502.2,370.5,503.2,370.5z"/>
		<path style="fill:none;stroke:#CF5240;stroke-width:2.7208;" d="M507.3,365.7l-6.1,6.1l6.1,6.1"/>
		<text transform="matrix(1 0 0 1 516.3623 376.3627)" style="fill:#CF5240; font-family:'Montserrat-Medium',sans-serif; font-size:11px;">4.25</text>
		<text transform="matrix(1 0 0 1 469.5137 376.3627)" style="fill:#CF5240; font-family:'Montserrat-Medium',sans-serif; font-size:11px;">  4.17</text>
		<path style="fill:#CF5240;" d="M191.4,387.1h14.7c1,0,1.8,0.6,1.8,1.4l0,0c0,0.8-0.8,1.4-1.8,1.4h-14.7c-1,0-1.8-0.6-1.8-1.4l0,0
			C189.6,387.8,190.4,387.1,191.4,387.1z"/>
		<path style="fill:none;stroke:#CF5240;stroke-width:2.7208;" d="M195.6,382.4l-6.1,6.1l6.1,6.1"/>
		<text transform="matrix(1 0 0 1 212.5015 393.0414)" style="fill:#CF5240; font-family:'Montserrat-Medium',sans-serif; font-size:11px;">1.93</text>
		<text transform="matrix(1 0 0 1 157.7891 393.0414)" style="fill:#CF5240; font-family:'Montserrat-Medium',sans-serif; font-size:11px;">  1.79</text>
		<path style="fill:#89BF4D;" d="M349.9,403.8h115.6c1,0,1.8,0.6,1.8,1.4l0,0c0,0.8-0.8,1.4-1.8,1.4H349.9c-1,0-1.8-0.6-1.8-1.4l0,0
			C348.1,404.4,348.9,403.8,349.9,403.8z"/>
		<path style="fill:none;stroke:#89BF4D;stroke-width:2.7208;" d="M461.4,399.1l6.1,6.1l-6.1,6.1"/>
		<text transform="matrix(1 0 0 1 316.2734 409.7201)" style="fill:#76AD3A; font-family:'Montserrat-Medium',sans-serif; font-size:11px;">  3.00</text>
		<text transform="matrix(1 0 0 1 471.8379 409.7201)" style="fill:#76AD3A; font-family:'Montserrat-Medium',sans-serif; font-size:11px;">3.91</text>
		<path style="fill:#89BF4D;" d="M224.2,420.5h81.5c1,0,1.8,0.6,1.8,1.4l0,0c0,0.8-0.8,1.4-1.8,1.4h-81.5c-1,0-1.8-0.6-1.8-1.4l0,0
			C222.4,421.1,223.2,420.5,224.2,420.5z"/>
		<path style="fill:none;stroke:#89BF4D;stroke-width:2.7208;" d="M301.6,415.8l6.1,6.1l-6.1,6.1"/>
		<text transform="matrix(1 0 0 1 190.5234 426.3988)" style="fill:#76AD3A; font-family:'Montserrat-Medium',sans-serif; font-size:11px;">  2.04</text>
		<text transform="matrix(1 0 0 1 312.0361 426.3988)" style="fill:#76AD3A; font-family:'Montserrat-Medium',sans-serif; font-size:11px;">2.69</text>
		<path style="fill:#506CA6;" d="M178.3,437.2h26.5c1,0,1.8,0.6,1.8,1.4l0,0c0,0.8-0.8,1.4-1.8,1.4h-26.5c-1,0-1.8-0.6-1.8-1.4l0,0
			C176.5,437.8,177.3,437.2,178.3,437.2z"/>
		<path style="fill:none;stroke:#506CA6;stroke-width:2.7208;" d="M200.7,432.5l6.1,6.1l-6.1,6.1"/>
		<text transform="matrix(1 0 0 1 147.6816 443.0775)" style="fill:#FFFFFF; font-family:'Montserrat-Medium',sans-serif; font-size:11px;">  1.69</text>
		<text transform="matrix(1 0 0 1 211.1836 443.0775)" style="fill:#FFFFFF; font-family:'Montserrat-Medium',sans-serif; font-size:11px;">1.92</text>
		<path style="fill:#506CA6;" d="M191.4,453.9h25.2c1,0,1.8,0.6,1.8,1.4l0,0c0,0.8-0.8,1.4-1.8,1.4h-25.2c-1,0-1.8-0.6-1.8-1.4l0,0
			C189.6,454.5,190.4,453.9,191.4,453.9z"/>
		<path style="fill:none;stroke:#506CA6;stroke-width:2.7208;" d="M212.5,449.1l6.1,6.1l-6.1,6.1"/>
		<text transform="matrix(1 0 0 1 160.7891 459.7572)" style="fill:#FFFFFF; font-family:'Montserrat-Medium',sans-serif; font-size:11px;">  1.79</text>
		<text transform="matrix(1 0 0 1 222.9736 459.7572)" style="fill:#FFFFFF; font-family:'Montserrat-Medium',sans-serif; font-size:11px;">2.01</text>
		<path style="fill:#506CA6;" d="M378.7,470.5h18.6c1,0,1.8,0.6,1.8,1.4l0,0c0,0.8-0.8,1.4-1.8,1.4h-18.6c-1,0-1.8-0.6-1.8-1.4l0,0
			C376.9,471.1,377.7,470.5,378.7,470.5z"/>
		<path style="fill:none;stroke:#506CA6;stroke-width:2.7208;" d="M393.2,465.8l6.1,6.1l-6.1,6.1"/>
		<text transform="matrix(1 0 0 1 345.082 476.4349)" style="fill:#FFFFFF; font-family:'Montserrat-Medium',sans-serif; font-size:11px;">  3.22</text>
		<text transform="matrix(1 0 0 1 403.7197 476.4349)" style="fill:#FFFFFF; font-family:'Montserrat-Medium',sans-serif; font-size:11px;">3.39</text>
		<path style="fill:#506CA6;" d="M267.4,487.2h55.3c1,0,1.8,0.6,1.8,1.4l0,0c0,0.8-0.8,1.4-1.8,1.4h-55.3c-1,0-1.8-0.6-1.8-1.4l0,0
			C265.6,487.8,266.4,487.2,267.4,487.2z"/>
		<path style="fill:none;stroke:#506CA6;stroke-width:2.7208;" d="M318.6,482.5l6.1,6.1l-6.1,6.1"/>
		<text transform="matrix(1 0 0 1 233.7432 493.1136)" style="fill:#FFFFFF; font-family:'Montserrat-Medium',sans-serif; font-size:11px;">  2.37</text>
		<text transform="matrix(1 0 0 1 329.0693 493.1136)" style="fill:#FFFFFF; font-family:'Montserrat-Medium',sans-serif; font-size:11px;">2.82</text>
		<path style="fill:#506CA6;" d="M283.1,503.9h14.7c1,0,1.8,0.6,1.8,1.4l0,0c0,0.8-0.8,1.4-1.8,1.4h-14.7c-1,0-1.8-0.6-1.8-1.4l0,0
			C281.3,504.5,282.1,503.9,283.1,503.9z"/>
		<path style="fill:none;stroke:#506CA6;stroke-width:2.7208;" d="M293.7,499.2l6.1,6.1l-6.1,6.1"/>
		<text transform="matrix(1 0 0 1 249.4731 509.7933)" style="fill:#FFFFFF; font-family:'Montserrat-Medium',sans-serif; font-size:11px;">  2.49</text>
		<text transform="matrix(1 0 0 1 304.1855 509.7933)" style="fill:#FFFFFF; font-family:'Montserrat-Medium',sans-serif; font-size:11px;">2.63</text>
		<path style="fill:#506CA6;" d="M412.8,520.6H459c1,0,1.8,0.6,1.8,1.4l0,0c0,0.8-0.8,1.4-1.8,1.4h-46.2c-1,0-1.8-0.6-1.8-1.4l0,0
			C411,521.2,411.8,520.6,412.8,520.6z"/>
		<path style="fill:none;stroke:#506CA6;stroke-width:2.7208;" d="M454.8,515.8l6.1,6.1l-6.1,6.1"/>
		<text transform="matrix(1 0 0 1 379.1338 526.4711)" style="fill:#FFFFFF; font-family:'Montserrat-Medium',sans-serif; font-size:11px;">  3.48</text>
		<text transform="matrix(1 0 0 1 465.291 526.4711)" style="fill:#FFFFFF; font-family:'Montserrat-Medium',sans-serif; font-size:11px;">3.86</text>
		<path style="fill:#506CA6;" d="M283.1,537.3h10.8c1,0,1.8,0.6,1.8,1.4l0,0c0,0.8-0.8,1.4-1.8,1.4h-10.8c-1,0-1.8-0.6-1.8-1.4l0,0
			C281.3,537.9,282.1,537.3,283.1,537.3z"/>
		<path style="fill:none;stroke:#506CA6;stroke-width:2.7208;" d="M289.8,532.5l6.1,6.1l-6.1,6.1"/>
		<text transform="matrix(1 0 0 1 249.4731 543.1498)" style="fill:#FFFFFF; font-family:'Montserrat-Medium',sans-serif; font-size:11px;">  2.49</text>
		<text transform="matrix(1 0 0 1 300.2461 543.1498)" style="fill:#FFFFFF; font-family:'Montserrat-Medium',sans-serif; font-size:11px;">2.60</text>
		<path style="fill:#506CA6;" d="M349.9,553.9h92c1,0,1.8,0.6,1.8,1.4l0,0c0,0.8-0.8,1.4-1.8,1.4h-92c-1,0-1.8-0.6-1.8-1.4l0,0
			C348.1,554.5,348.9,553.9,349.9,553.9z"/>
		<path style="fill:none;stroke:#506CA6;stroke-width:2.7208;" d="M437.8,549.2l6.1,6.1l-6.1,6.1"/>
		<text transform="matrix(1 0 0 1 316.2734 559.8295)" style="fill:#FFFFFF; font-family:'Montserrat-Medium',sans-serif; font-size:11px;">  3.00</text>
		<text transform="matrix(1 0 0 1 448.2578 559.8295)" style="fill:#FFFFFF; font-family:'Montserrat-Medium',sans-serif; font-size:11px;">3.73</text>
		<path style="fill:#506CA6;" d="M363,570.6h55.3c1,0,1.8,0.6,1.8,1.4l0,0c0,0.8-0.8,1.4-1.8,1.4H363c-1,0-1.8-0.6-1.8-1.4l0,0
			C361.2,571.2,362,570.6,363,570.6z"/>
		<path style="fill:none;stroke:#506CA6;stroke-width:2.7208;" d="M414.2,565.9l6.1,6.1l-6.1,6.1"/>
		<text transform="matrix(1 0 0 1 332.3672 576.5072)" style="fill:#FFFFFF; font-family:'Montserrat-Medium',sans-serif; font-size:11px;">  3.10</text>
		<text transform="matrix(1 0 0 1 424.6777 576.5072)" style="fill:#FFFFFF; font-family:'Montserrat-Medium',sans-serif; font-size:11px;">3.55</text>
		<path style="fill:#506CA6;" d="M440.3,587.3h25.2c1,0,1.8,0.6,1.8,1.4l0,0c0,0.8-0.8,1.4-1.8,1.4h-25.2c-1,0-1.8-0.6-1.8-1.4l0,0
			C438.5,587.9,439.3,587.3,440.3,587.3z"/>
		<path style="fill:none;stroke:#506CA6;stroke-width:2.7208;" d="M461.4,582.6l6.1,6.1l-6.1,6.1"/>
		<text transform="matrix(1 0 0 1 406.6387 593.1869)" style="fill:#FFFFFF; font-family:'Montserrat-Medium',sans-serif; font-size:11px;">  3.69</text>
		<text transform="matrix(1 0 0 1 471.8379 593.1869)" style="fill:#FFFFFF; font-family:'Montserrat-Medium',sans-serif; font-size:11px;">3.91</text>
		<path style="fill:#506CA6;" d="M346,604h107.7c1,0,1.8,0.6,1.8,1.4l0,0c0,0.8-0.8,1.4-1.8,1.4H346c-1,0-1.8-0.6-1.8-1.4l0,0
			C344.2,604.6,345,604,346,604z"/>
		<path style="fill:none;stroke:#506CA6;stroke-width:2.7208;" d="M449.6,599.2l6.1,6.1l-6.1,6.1"/>
		<text transform="matrix(1 0 0 1 312.3335 609.8656)" style="fill:#FFFFFF; font-family:'Montserrat-Medium',sans-serif; font-size:11px;">  2.97</text>
		<text transform="matrix(1 0 0 1 460.0479 609.8656)" style="fill:#FFFFFF; font-family:'Montserrat-Medium',sans-serif; font-size:11px;">3.82</text>
		<path style="fill:#89BF4D;" d="M175.7,320.413h99.9c1,0,1.8,0.6,1.8,1.4l0,0c0,0.8-0.8,1.4-1.8,1.4h-99.9c-1,0-1.8-0.6-1.8-1.4
			l0,0C173.9,321.013,174.7,320.413,175.7,320.413z"/>
		<path style="fill:none;stroke:#89BF4D;stroke-width:2.7208;" d="M271.4,315.713l6.1,6.1l-6.1,6.1"/>
		<text transform="matrix(1 0 0 1 145.0601 326.3241)" style="fill:#76AD3A; font-family:'Montserrat-Medium',sans-serif; font-size:11px;">  1.67</text>
		<text transform="matrix(1 0 0 1 281.9092 326.3241)" style="fill:#76AD3A; font-family:'Montserrat-Medium',sans-serif; font-size:11px;">2.46</text>
	</g>
	<g id="Estados">
		<text transform="matrix(1 0 0 1 41.5776 92.6532)" style="fill:#FFFFFF; font-family:'Montserrat-Bold',sans-serif; font-size:10.883px;">AGS</text>
		<text transform="matrix(1 0 0 1 42.1841 126.0106)" style="fill:#FFFFFF; font-family:'Montserrat-Bold',sans-serif; font-size:10.883px;">BCS</text>
		<text transform="matrix(1 0 0 1 33.1177 142.6893)" style="fill:#FFFFFF; font-family:'Montserrat-Bold',sans-serif; font-size:10.883px;">CAMP</text>
		<text transform="matrix(1 0 0 1 32.5176 159.3685)" style="fill:#FFFFFF; font-family:'Montserrat-Bold',sans-serif; font-size:10.883px;">CDMX</text>
		<text transform="matrix(1 0 0 1 37.959 176.0468)" style="fill:#FFFFFF; font-family:'Montserrat-Bold',sans-serif; font-size:10.883px;">CHIH</text>
		<text transform="matrix(1 0 0 1 38.5596 192.7255)" style="fill:#FFFFFF; font-family:'Montserrat-Bold',sans-serif; font-size:10.883px;">CHIS</text>
		<text transform="matrix(1 0 0 1 33.1177 209.4047)" style="fill:#FFFFFF; font-family:'Montserrat-Bold',sans-serif; font-size:10.883px;">COAH</text>
		<text transform="matrix(1 0 0 1 42.1841 226.0834)" style="fill:#FFFFFF; font-family:'Montserrat-Bold',sans-serif; font-size:10.883px;">COL</text>
		<text transform="matrix(1 0 0 1 39.771 242.7616)" style="fill:#FFFFFF; font-family:'Montserrat-Bold',sans-serif; font-size:10.883px;">DGO</text>
		<text transform="matrix(1 0 0 1 39.771 259.4413)" style="fill:#FFFFFF; font-family:'Montserrat-Bold',sans-serif; font-size:10.883px;">GRO</text>
		<text transform="matrix(1 0 0 1 41.1797 276.1205)" style="fill:#FFFFFF; font-family:'Montserrat-Bold',sans-serif; font-size:10.883px;">GTO</text>
		<text transform="matrix(1 0 0 1 39.771 292.7992)" style="fill:#FFFFFF; font-family:'Montserrat-Bold',sans-serif; font-size:10.883px;">HGO</text>
		<text transform="matrix(1 0 0 1 45.8076 309.4779)" style="fill:#FFFFFF; font-family:'Montserrat-Bold',sans-serif; font-size:10.883px;">JAL</text>
		<text transform="matrix(1 0 0 1 36.7529 342.8344)" style="fill:#FFFFFF; font-family:'Montserrat-Bold',sans-serif; font-size:10.883px;">MICH</text>
		<text transform="matrix(1 0 0 1 39.1709 359.5131)" style="fill:#FFFFFF; font-family:'Montserrat-Bold',sans-serif; font-size:10.883px;">MOR</text>
		<text transform="matrix(1 0 0 1 42.9912 376.1927)" style="fill:#FFFFFF; font-family:'Montserrat-Bold',sans-serif; font-size:10.883px;">NAY</text>
		<text transform="matrix(1 0 0 1 41.5776 409.5502)" style="fill:#FFFFFF; font-family:'Montserrat-Bold',sans-serif; font-size:10.883px;">OAX</text>
		<text transform="matrix(1 0 0 1 42.1841 426.2289)" style="fill:#FFFFFF; font-family:'Montserrat-Bold',sans-serif; font-size:10.883px;">PUE</text>
		<text transform="matrix(1 0 0 1 39.771 442.9066)" style="fill:#FFFFFF; font-family:'Montserrat-Bold',sans-serif; font-size:10.883px;">QRO</text>
		<text transform="matrix(1 0 0 1 31.3062 459.5863)" style="fill:#FFFFFF; font-family:'Montserrat-Bold',sans-serif; font-size:10.883px;">QROO</text>
		<text transform="matrix(1 0 0 1 46.4185 476.265)" style="fill:#FFFFFF; font-family:'Montserrat-Bold',sans-serif; font-size:10.883px;">SIN</text>
		<text transform="matrix(1 0 0 1 43.9902 492.9447)" style="fill:#FFFFFF; font-family:'Montserrat-Bold',sans-serif; font-size:10.883px;">SLP</text>
		<text transform="matrix(1 0 0 1 40.9771 509.6224)" style="fill:#FFFFFF; font-family:'Montserrat-Bold',sans-serif; font-size:10.883px;">SON</text>
		<text transform="matrix(1 0 0 1 44.2026 526.3011)" style="fill:#FFFFFF; font-family:'Montserrat-Bold',sans-serif; font-size:10.883px;">TAB</text>
		<text transform="matrix(1 0 0 1 27.8784 542.9808)" style="fill:#FFFFFF; font-family:'Montserrat-Bold',sans-serif; font-size:10.883px;">TAMPS</text>
		<text transform="matrix(1 0 0 1 37.3423 559.6586)" style="fill:#FFFFFF; font-family:'Montserrat-Bold',sans-serif; font-size:10.883px;">TLAX</text>
		<text transform="matrix(1 0 0 1 42.1841 576.3383)" style="fill:#FFFFFF; font-family:'Montserrat-Bold',sans-serif; font-size:10.883px;">VER</text>
		<text transform="matrix(1 0 0 1 41.583 593.017)" style="fill:#FFFFFF; font-family:'Montserrat-Bold',sans-serif; font-size:10.883px;">YUC</text>
		<text transform="matrix(1 0 0 1 42.7949 609.6947)" style="fill:#FFFFFF; font-family:'Montserrat-Bold',sans-serif; font-size:10.883px;">ZAC</text>
		<text transform="matrix(1 0 0 1 49.4424 109.3314)" style="fill:#FFFFFF; font-family:'Montserrat-Bold',sans-serif; font-size:10.883px;">BC</text>
		
			<text transform="matrix(1 0 0 1 50.6489 392.8705)" style="fill:#FFFFFF; font-family:'Montserrat-SemiBold',sans-serif; font-size:10.883px;">NL</text>
		<text transform="matrix(1 0 0 1 40.8995 326.1537)" style="fill:#FFFFFF; font-family:'Montserrat-Bold',sans-serif; font-size:10.883px;">MEX</text>
	</g>
	<g id="footer">
		<text transform="matrix(1 0 0 1 27.8784 657.6635)" style="fill:#878889; font-family:'ArialMT'; font-size:9.9761px;">Created with</text>
		<text transform="matrix(1 0 0 1 86.3623 657.6635)" style="fill:#878889; font-family:'ArialMT'; font-size:9.9761px;">Datawrapper</text>
	</g>
	<g id="Porcentajes_x5F_Lat">
		<text transform="matrix(1 0 0 1 553.6125 92.8243)" style="fill:#FAFAFA; font-family:'Montserrat-Medium',sans-serif; font-size:11px;">+20%</text>
		<text transform="matrix(1 0 0 1 553.0029 109.2202)" style="fill:#CF5240; font-family:'Montserrat-Medium',sans-serif; font-size:11px;">+0%</text>
		<text transform="matrix(1 0 0 1 553.0032 125.899)" style="fill:#CF5240; font-family:'Montserrat-Medium',sans-serif; font-size:11px;">-7.5%</text>
		<text transform="matrix(1 0 0 1 553.0024 142.5777)" style="fill:#CF5240; font-family:'Montserrat-Medium',sans-serif; font-size:11px;">-37.3%</text>
		<text transform="matrix(1 0 0 1 553.0029 159.2564)" style="fill:#FAFAFA; font-family:'Montserrat-Medium',sans-serif; font-size:11px;">+10%</text>
		<text transform="matrix(1 0 0 1 553.0032 175.9356)" style="fill:#76AD3A; font-family:'Montserrat-Medium',sans-serif; font-size:11px;">+32%</text>
		<text transform="matrix(1 0 0 1 553.0032 192.6143)" style="fill:#FFFFFF; font-family:'Montserrat-Medium',sans-serif; font-size:11px;">+23%</text>
		<text transform="matrix(1 0 0 1 553.0029 209.293)" style="fill:#FFFFFF; font-family:'Montserrat-Medium',sans-serif; font-size:11px;">+2%</text>
		<text transform="matrix(1 0 0 1 553.0032 225.9717)" style="fill:#FFFFFF; font-family:'Montserrat-Medium',sans-serif; font-size:11px;">+15%</text>
		<text transform="matrix(1 0 0 1 553.0032 242.6504)" style="fill:#FFFFFF; font-family:'Montserrat-Medium',sans-serif; font-size:11px;">+25%</text>
		<text transform="matrix(1 0 0 1 553.0032 259.3301)" style="fill:#76AD3A; font-family:'Montserrat-Medium',sans-serif; font-size:11px;">+33%</text>
		<text transform="matrix(1 0 0 1 553.0029 276.0088)" style="fill:#FFFFFF; font-family:'Montserrat-Medium',sans-serif; font-size:11px;">+23%</text>
		<text transform="matrix(1 0 0 1 553.0032 292.6876)" style="fill:#FFFFFF; font-family:'Montserrat-Medium',sans-serif; font-size:11px;">+27%</text>
		<text transform="matrix(1 0 0 1 553.0029 309.3663)" style="fill:#FFFFFF; font-family:'Montserrat-Medium',sans-serif; font-size:11px;">+11%</text>
		<text transform="matrix(1 0 0 1 553.0029 342.7237)" style="fill:#FFFFFF; font-family:'Montserrat-Medium',sans-serif; font-size:11px;">+25%</text>
		<text transform="matrix(1 0 0 1 553.0029 359.4024)" style="fill:#FFFFFF; font-family:'Montserrat-Medium',sans-serif; font-size:11px;">+20%</text>
		<text transform="matrix(1 0 0 1 553.0032 376.0811)" style="fill:#CF5240; font-family:'Montserrat-Medium',sans-serif; font-size:11px;">-1.9%</text>
		<text transform="matrix(1 0 0 1 553.0029 392.7598)" style="fill:#CF5240; font-family:'Montserrat-Medium',sans-serif; font-size:11px;">-7.3%</text>
		<text transform="matrix(1 0 0 1 553.0032 409.4385)" style="fill:#76AD3A; font-family:'Montserrat-Medium',sans-serif; font-size:11px;">+30%</text>
		<text transform="matrix(1 0 0 1 553.0032 426.1172)" style="fill:#76AD3A; font-family:'Montserrat-Medium',sans-serif; font-size:11px;">+32%</text>
		<text transform="matrix(1 0 0 1 553.0032 442.7959)" style="fill:#FFFFFF; font-family:'Montserrat-Medium',sans-serif; font-size:11px;">+14%</text>
		<text transform="matrix(1 0 0 1 553.0027 459.4746)" style="fill:#FFFFFF; font-family:'Montserrat-Medium',sans-serif; font-size:11px;">+12%</text>
		<text transform="matrix(1 0 0 1 553.0027 476.1534)" style="fill:#FFFFFF; font-family:'Montserrat-Medium',sans-serif; font-size:11px;">+5%</text>
		<text transform="matrix(1 0 0 1 553.0027 492.8321)" style="fill:#FFFFFF; font-family:'Montserrat-Medium',sans-serif; font-size:11px;">+19%</text>
		<text transform="matrix(1 0 0 1 553.0027 509.5108)" style="fill:#FFFFFF; font-family:'Montserrat-Medium',sans-serif; font-size:11px;">+6%</text>
		<text transform="matrix(1 0 0 1 553.0027 526.1895)" style="fill:#FFFFFF; font-family:'Montserrat-Medium',sans-serif; font-size:11px;">+11%</text>
		<text transform="matrix(1 0 0 1 553.0027 542.8682)" style="fill:#FFFFFF; font-family:'Montserrat-Medium',sans-serif; font-size:11px;">+4%</text>
		<text transform="matrix(1 0 0 1 553.0027 559.5479)" style="fill:#FFFFFF; font-family:'Montserrat-Medium',sans-serif; font-size:11px;">+24%</text>
		<text transform="matrix(1 0 0 1 553.0027 576.2266)" style="fill:#FFFFFF; font-family:'Montserrat-Medium',sans-serif; font-size:11px;">+15%</text>
		<text transform="matrix(1 0 0 1 553.0027 592.9053)" style="fill:#FFFFFF; font-family:'Montserrat-Medium',sans-serif; font-size:11px;">+6%</text>
		<text transform="matrix(1 0 0 1 553.0027 609.584)" style="fill:#FFFFFF; font-family:'Montserrat-Medium',sans-serif; font-size:11px;">+29%</text>
		<text transform="matrix(1 0 0 1 553.0029 326.042)" style="fill:#76AD3A; font-family:'Montserrat-Medium',sans-serif; font-size:11px;">+47%</text>
	</g>
	<g id="Eje_x5F_X" transform="translate(57.60938, 35)">
		<g id="grid-svg_00000166665718327356406770000004914190962046736016_">
			
				<g id="x-tick-labels-svg_grid-x-svg_number-axis-svg_datawrapper-y25AT-16k86v8-svg_00000002346399915333766540000014953318323553284231_" transform="translate(0, 589.5)">
				<text transform="matrix(1 0 0 1 21.9307 2.7806)" style="fill:#A2A2A1; font-family:'Montserrat-SemiBold',sans-serif; font-size:12px;">1.0</text>
				<text transform="matrix(1 0 0 1 87.4204 2.7806)" style="fill:#A2A2A1; font-family:'Montserrat-SemiBold',sans-serif; font-size:12px;">1.5</text>
				<text transform="matrix(1 0 0 1 152.9097 2.7806)" style="fill:#A2A2A1; font-family:'Montserrat-SemiBold',sans-serif; font-size:12px;">2.0</text>
				<text transform="matrix(1 0 0 1 218.3994 2.7806)" style="fill:#A2A2A1; font-family:'Montserrat-SemiBold',sans-serif; font-size:12px;">2.5</text>
				<text transform="matrix(1 0 0 1 283.8887 2.7806)" style="fill:#A2A2A1; font-family:'Montserrat-SemiBold',sans-serif; font-size:12px;">3.0</text>
				<text transform="matrix(1 0 0 1 349.3779 2.7806)" style="fill:#A2A2A1; font-family:'Montserrat-SemiBold',sans-serif; font-size:12px;">3.5</text>
				<text transform="matrix(1 0 0 1 414.8672 2.7806)" style="fill:#A2A2A1; font-family:'Montserrat-SemiBold',sans-serif; font-size:12px;">4.0</text>
			</g>
			<g id="y-base-lines-svg_grid-y-svg_datawrapper-y25AT-1io9s9d-svg_00000023277519920381364440000011685415048110353575_">
			</g>
		</g>
		<text transform="matrix(1 0 0 1 -27.8958 591.9413)" style="fill:#A2A2A0; font-family:'Montserrat-Bold',sans-serif; font-size:10.883px;">PIB(%)</text>
		<text transform="matrix(1 0 0 1 468.2319 592.5526)" style="fill:#A2A2A0; font-family:'Montserrat-Bold',sans-serif; font-size:10.883px;">%CAMBIO</text>
	</g>
	<g id="header_00000164506905663664749170000018200568611240015550_">
		<text transform="matrix(1 0 0 1 66.0427 30.8311)" style="fill:#FFFFFF; font-family:'Montserrat-ExtraBold',sans-serif; font-size:20px;">Cambios del Promedio del PIB asignado a Salud</text>
	</g>
</g>
</svg>
