<?xml version="1.0" encoding="utf-8"?>
<!-- Generator: Adobe Illustrator 26.5.0, SVG Export Plug-In . SVG Version: 6.00 Build 0)  -->
<svg version="1.1" xmlns="http://www.w3.org/2000/svg" xmlns:xlink="http://www.w3.org/1999/xlink" x="0px" y="0px"
	 viewBox="0 0 612 623.6" style="enable-background:new 0 0 612 623.6;" xml:space="preserve">
<style type="text/css">
	.st0{fill:#152A44;}
	.st1{opacity:0.2;fill:#FFEDD5;stroke:#E8E7E7;stroke-width:0.9069;}
	.st2{opacity:0.2;fill:#FFEDD5;stroke:#E8E7E7;stroke-width:0.9069;stroke-dasharray:0.9069,0.9069;}
	.st3{fill:#FFFFFF;}
	.st4{font-family:'Arial-BoldMT';}
	.st5{font-size:19.9522px;}
	.st6{font-family:'ArialMT';}
	.st7{font-size:10.883px;}
	.st8{fill:#7E8DBC;}
	.st9{fill:none;stroke:#7E8DBC;stroke-width:2.7208;}
	.st10{fill:#FAFAFA;}
	.st11{fill:none;stroke:#C22222;stroke-width:2.7208;}
	.st12{fill:#C22222;}
	.st13{fill:#89BF4D;}
	.st14{fill:none;stroke:#89BF4D;stroke-width:2.7208;}
	.st15{fill:#76AD3A;}
	.st16{fill:#878889;}
	.st17{font-size:9.9761px;}
	.st18{fill:#A2A2A1;}
</style>
<g id="Fondo">
	<rect x="-0.2" y="0.1" class="st0" width="613.6" height="623.6"/>
</g>
<g id="Capa_3">
	<line class="st1" x1="79.2" y1="565.5" x2="79.2" y2="35.4"/>
	<line class="st1" x1="144.6" y1="565.5" x2="144.6" y2="35.4"/>
	<line class="st1" x1="210.1" y1="565.5" x2="210.1" y2="35.4"/>
	<line class="st1" x1="275.6" y1="565.5" x2="275.6" y2="35.4"/>
	<line class="st1" x1="341.1" y1="565.5" x2="341.1" y2="35.4"/>
	<line class="st1" x1="406.6" y1="565.5" x2="406.6" y2="35.4"/>
	<line class="st1" x1="472.1" y1="565.5" x2="472.1" y2="35.4"/>
	<line class="st1" x1="537.6" y1="565.5" x2="537.6" y2="35.4"/>
	<line class="st2" x1="62.1" y1="41.8" x2="544" y2="41.8"/>
	<line class="st2" x1="62.1" y1="59" x2="544" y2="59"/>
	<line class="st2" x1="62.1" y1="75.3" x2="544" y2="75.3"/>
	<line class="st2" x1="62.1" y1="91.7" x2="544" y2="91.7"/>
	<line class="st2" x1="62.1" y1="108.9" x2="544" y2="108.9"/>
	<line class="st2" x1="62.1" y1="125.2" x2="544" y2="125.2"/>
	<line class="st2" x1="62.1" y1="142.4" x2="544" y2="142.4"/>
	<line class="st2" x1="62.1" y1="158.8" x2="544" y2="158.8"/>
	<line class="st2" x1="62.1" y1="175.1" x2="544" y2="175.1"/>
	<line class="st2" x1="62.1" y1="192.3" x2="544" y2="192.3"/>
	<line class="st2" x1="62.1" y1="208.6" x2="544" y2="208.6"/>
	<line class="st2" x1="62.1" y1="225" x2="544" y2="225"/>
	<line class="st2" x1="62.1" y1="242.2" x2="544" y2="242.2"/>
	<line class="st2" x1="62.1" y1="258.5" x2="544" y2="258.5"/>
	<line class="st2" x1="62.1" y1="275.8" x2="544" y2="275.8"/>
	<line class="st2" x1="62.1" y1="292.1" x2="544" y2="292.1"/>
	<line class="st2" x1="62.1" y1="308.4" x2="544" y2="308.4"/>
	<line class="st2" x1="62.1" y1="325.6" x2="544" y2="325.6"/>
	<line class="st2" x1="62.1" y1="342" x2="544" y2="342"/>
	<line class="st2" x1="62.1" y1="359.2" x2="544" y2="359.2"/>
	<line class="st2" x1="62.1" y1="375.5" x2="544" y2="375.5"/>
	<line class="st2" x1="62.1" y1="391.8" x2="544" y2="391.8"/>
	<line class="st2" x1="62.1" y1="409.1" x2="544" y2="409.1"/>
	<line class="st2" x1="62.1" y1="425.4" x2="544" y2="425.4"/>
	<line class="st2" x1="62.1" y1="442.6" x2="544" y2="442.6"/>
	<line class="st2" x1="62.1" y1="459" x2="544" y2="459"/>
	<line class="st2" x1="62.1" y1="475.3" x2="544" y2="475.3"/>
	<line class="st2" x1="62.1" y1="492.5" x2="544" y2="492.5"/>
	<line class="st2" x1="62.1" y1="508.8" x2="544" y2="508.8"/>
	<line class="st2" x1="62.1" y1="526.1" x2="544" y2="526.1"/>
	<line class="st2" x1="62.1" y1="542.4" x2="544" y2="542.4"/>
	<line class="st2" x1="62.1" y1="558.7" x2="544" y2="558.7"/>
</g>
<g id="Arrow">
	<g id="header-svg_00000065035531696810365800000015792849612794536073_">
		<text transform="matrix(1 0 0 1 9.8481 23.6334)" class="st3 st4 st5">Sexenio 1 vs Sexenio 2 PIB</text>
	</g>
	<g id="chart-svg_00000155830868137943351390000014701317496950799524_">
		<text transform="matrix(1 0 0 1 34.5776 46.3067)" class="st3 st6 st7">AGS</text>
		<path class="st8" d="M253.9,40.6h58c1,0,1.8,0.6,1.8,1.4l0,0c0,0.8-0.8,1.4-1.8,1.4h-58c-1,0-1.8-0.6-1.8-1.4l0,0
			C252,41.2,252.9,40.6,253.9,40.6z"/>
		<path class="st9" d="M307.7,35.8l6.1,6.1l-6.1,6.1"/>
		<text transform="matrix(1 0 0 1 220.1968 46.4767)" class="st10 st6 st7">  2.32</text>
		<text transform="matrix(1 0 0 1 318.1436 46.4767)" class="st10 st6 st7">2.79</text>
		<text transform="matrix(1 0 0 1 42.4424 62.985)" class="st3 st6 st7">BC</text>
		<path class="st11" d="M208.8,52.6v12.1"/>
		<text transform="matrix(1 0 0 1 176.9766 63.1554)" class="st12 st6 st7">  1.99</text>
		<text transform="matrix(1 0 0 1 213.3521 63.1554)" class="st12 st6 st7">1.99</text>
		<text transform="matrix(1 0 0 1 35.1841 79.6642)" class="st3 st6 st7">BCS</text>
		<path class="st12" d="M400.5,73.9h33.1c1,0,1.8,0.6,1.8,1.4l0,0c0,0.8-0.8,1.4-1.8,1.4h-33.1c-1,0-1.8-0.6-1.8-1.4l0,0
			C398.7,74.5,399.5,73.9,400.5,73.9z"/>
		<path class="st11" d="M404.7,69.2l-6.1,6.1l6.1,6.1"/>
		<text transform="matrix(1 0 0 1 439.9541 79.8346)" class="st12 st6 st7">3.72</text>
		<text transform="matrix(1 0 0 1 366.8906 79.8346)" class="st12 st6 st7">  3.44</text>
		<text transform="matrix(1 0 0 1 26.1177 96.3429)" class="st3 st6 st7">CAMP</text>
		<path class="st12" d="M95.4,90.6h82.8c1,0,1.8,0.6,1.8,1.4l0,0c0,0.8-0.8,1.4-1.8,1.4H95.4c-1,0-1.8-0.6-1.8-1.4l0,0
			C93.6,91.2,94.4,90.6,95.4,90.6z"/>
		<path class="st11" d="M99.5,85.9L93.4,92l6.1,6.1"/>
		<text transform="matrix(1 0 0 1 184.5435 96.5128)" class="st12 st6 st7">1.77</text>
		<text transform="matrix(1 0 0 1 61.7129 96.5128)" class="st12 st6 st7">  1.11</text>
		<text transform="matrix(1 0 0 1 25.5176 113.0221)" class="st3 st6 st7">CDMX</text>
		<path class="st8" d="M327.2,107.3h35.7c1,0,1.8,0.6,1.8,1.4l0,0c0,0.8-0.8,1.4-1.8,1.4h-35.7c-1,0-1.8-0.6-1.8-1.4l0,0
			C325.4,107.9,326.2,107.3,327.2,107.3z"/>
		<path class="st9" d="M358.7,102.6l6.1,6.1l-6.1,6.1"/>
		<text transform="matrix(1 0 0 1 293.5435 113.1915)" class="st10 st6 st7">  2.88</text>
		<text transform="matrix(1 0 0 1 369.2148 113.1915)" class="st10 st6 st7">3.18</text>
		<text transform="matrix(1 0 0 1 30.959 129.7003)" class="st3 st6 st7">CHIH</text>
		<path class="st13" d="M197.5,124h76.3c1,0,1.8,0.6,1.8,1.4l0,0c0,0.8-0.8,1.4-1.8,1.4h-76.3c-1,0-1.8-0.6-1.8-1.4l0,0
			C195.7,124.6,196.5,124,197.5,124z"/>
		<path class="st14" d="M269.7,119.2l6.1,6.1l-6.1,6.1"/>
		<text transform="matrix(1 0 0 1 163.8828 129.8707)" class="st15 st6 st7">  1.89</text>
		<text transform="matrix(1 0 0 1 280.1523 129.8707)" class="st15 st6 st7">2.50</text>
		<text transform="matrix(1 0 0 1 31.5596 146.379)" class="st3 st6 st7">CHIS</text>
		<path class="st8" d="M346.9,140.7h89.4c1,0,1.8,0.6,1.8,1.4l0,0c0,0.8-0.8,1.4-1.8,1.4h-89.4c-1,0-1.8-0.6-1.8-1.4l0,0
			C345,141.3,345.9,140.7,346.9,140.7z"/>
		<path class="st9" d="M432.1,135.9l6.1,6.1l-6.1,6.1"/>
		<text transform="matrix(1 0 0 1 313.1982 146.5494)" class="st3 st6 st7">  3.03</text>
		<text transform="matrix(1 0 0 1 442.5615 146.5494)" class="st3 st6 st7">3.74</text>
		<text transform="matrix(1 0 0 1 26.1177 163.0582)" class="st3 st6 st7">COAH</text>
		<path class="st8" d="M251.2,157.3h1.6c1,0,1.8,0.6,1.8,1.4l0,0c0,0.8-0.8,1.4-1.8,1.4h-1.6c-1,0-1.8-0.6-1.8-1.4l0,0
			C249.4,157.9,250.2,157.3,251.2,157.3z"/>
		<path class="st9" d="M248.7,152.6l6.1,6.1l-6.1,6.1"/>
		<text transform="matrix(1 0 0 1 217.5747 163.2276)" class="st3 st6 st7">  2.30</text>
		<text transform="matrix(1 0 0 1 259.1943 163.2276)" class="st3 st6 st7">2.34</text>
		<text transform="matrix(1 0 0 1 35.1841 179.7369)" class="st3 st6 st7">COL</text>
		<path class="st8" d="M371.7,174h60.6c1,0,1.8,0.6,1.8,1.4l0,0c0,0.8-0.8,1.4-1.8,1.4h-60.6c-1,0-1.8-0.6-1.8-1.4l0,0
			C369.9,174.6,370.7,174,371.7,174z"/>
		<path class="st9" d="M428.2,169.3l6.1,6.1l-6.1,6.1"/>
		<text transform="matrix(1 0 0 1 338.082 179.9068)" class="st3 st6 st7">  3.22</text>
		<text transform="matrix(1 0 0 1 438.6357 179.9068)" class="st3 st6 st7">3.71</text>
		<text transform="matrix(1 0 0 1 32.771 196.4151)" class="st3 st6 st7">DGO</text>
		<path class="st8" d="M333.8,190.7h93.3c1,0,1.8,0.6,1.8,1.4l0,0c0,0.8-0.8,1.4-1.8,1.4h-93.3c-1,0-1.8-0.6-1.8-1.4l0,0
			C331.9,191.3,332.8,190.7,333.8,190.7z"/>
		<path class="st9" d="M422.9,186l6.1,6.1l-6.1,6.1"/>
		<text transform="matrix(1 0 0 1 300.1045 196.5855)" class="st3 st6 st7">  2.93</text>
		<text transform="matrix(1 0 0 1 433.3926 196.5855)" class="st3 st6 st7">3.67</text>
		<text transform="matrix(1 0 0 1 10.394 213.0943)" class="st3 st6 st7">EDOMEX</text>
		<path class="st13" d="M168.7,207.4h99.9c1,0,1.8,0.6,1.8,1.4l0,0c0,0.8-0.8,1.4-1.8,1.4h-99.9c-1,0-1.8-0.6-1.8-1.4l0,0
			C166.9,208,167.7,207.4,168.7,207.4z"/>
		<path class="st14" d="M264.4,202.6l6.1,6.1l-6.1,6.1"/>
		<text transform="matrix(1 0 0 1 135.0601 213.2647)" class="st15 st6 st7">  1.67</text>
		<text transform="matrix(1 0 0 1 274.9092 213.2647)" class="st15 st6 st7">2.46</text>
		<text transform="matrix(1 0 0 1 32.771 229.773)" class="st3 st6 st7">GRO</text>
		<path class="st13" d="M316.7,224h115.6c1,0,1.8,0.6,1.8,1.4l0,0c0,0.8-0.8,1.4-1.8,1.4H316.7c-1,0-1.8-0.6-1.8-1.4l0,0
			C314.9,224.7,315.7,224,316.7,224z"/>
		<path class="st14" d="M428.2,219.3l6.1,6.1l-6.1,6.1"/>
		<text transform="matrix(1 0 0 1 283.0713 229.9435)" class="st15 st6 st7">  2.80</text>
		<text transform="matrix(1 0 0 1 438.6357 229.9435)" class="st15 st6 st7">3.71</text>
		<text transform="matrix(1 0 0 1 34.1797 246.4522)" class="st3 st6 st7">GTO</text>
		<path class="st8" d="M230.3,240.7h61.9c1,0,1.8,0.6,1.8,1.4l0,0c0,0.8-0.8,1.4-1.8,1.4h-61.9c-1,0-1.8-0.6-1.8-1.4l0,0
			C228.5,241.3,229.3,240.7,230.3,240.7z"/>
		<path class="st9" d="M288,236l6.1,6.1l-6.1,6.1"/>
		<text transform="matrix(1 0 0 1 196.6309 246.6217)" class="st3 st6 st7">  2.14</text>
		<text transform="matrix(1 0 0 1 298.4893 246.6217)" class="st3 st6 st7">2.64</text>
		<text transform="matrix(1 0 0 1 32.771 263.131)" class="st3 st6 st7">HGO</text>
		<path class="st8" d="M314.1,257.4h93.3c1,0,1.8,0.6,1.8,1.4l0,0c0,0.8-0.8,1.4-1.8,1.4h-93.3c-1,0-1.8-0.6-1.8-1.4l0,0
			C312.3,258,313.1,257.4,314.1,257.4z"/>
		<path class="st9" d="M403.3,252.7l6.1,6.1l-6.1,6.1"/>
		<text transform="matrix(1 0 0 1 280.4497 263.3009)" class="st3 st6 st7">  2.78</text>
		<text transform="matrix(1 0 0 1 413.752 263.3009)" class="st3 st6 st7">3.52</text>
		<text transform="matrix(1 0 0 1 38.8076 279.8097)" class="st3 st6 st7">JAL</text>
		<path class="st8" d="M260.4,274.1h30.5c1,0,1.8,0.6,1.8,1.4l0,0c0,0.8-0.8,1.4-1.8,1.4h-30.5c-1,0-1.8-0.6-1.8-1.4l0,0
			C258.6,274.7,259.4,274.1,260.4,274.1z"/>
		<path class="st9" d="M286.7,269.4l6.1,6.1l-6.1,6.1"/>
		<text transform="matrix(1 0 0 1 226.7432 279.9796)" class="st3 st6 st7">  2.37</text>
		<text transform="matrix(1 0 0 1 297.1855 279.9796)" class="st3 st6 st7">2.63</text>
		<text transform="matrix(1 0 0 1 29.7529 296.4879)" class="st3 st6 st7">MICH</text>
		<path class="st8" d="M260.4,290.8h73.7c1,0,1.8,0.6,1.8,1.4l0,0c0,0.8-0.8,1.4-1.8,1.4h-73.7c-1,0-1.8-0.6-1.8-1.4l0,0
			C258.6,291.4,259.4,290.8,260.4,290.8z"/>
		<path class="st9" d="M329.9,286l6.1,6.1l-6.1,6.1"/>
		<text transform="matrix(1 0 0 1 226.7432 296.6588)" class="st3 st6 st7">  2.37</text>
		<text transform="matrix(1 0 0 1 340.4053 296.6588)" class="st3 st6 st7">2.96</text>
		<text transform="matrix(1 0 0 1 32.1709 313.1666)" class="st3 st6 st7">MOR</text>
		<path class="st8" d="M264.3,307.4h59.2c1,0,1.8,0.6,1.8,1.4l0,0c0,0.8-0.8,1.4-1.8,1.4h-59.2c-1,0-1.8-0.6-1.8-1.4l0,0
			C262.5,308.1,263.3,307.4,264.3,307.4z"/>
		<path class="st9" d="M319.4,302.7l6.1,6.1l-6.1,6.1"/>
		<text transform="matrix(1 0 0 1 230.6831 313.3365)" class="st3 st6 st7">  2.40</text>
		<text transform="matrix(1 0 0 1 329.9189 313.3365)" class="st3 st6 st7">2.88</text>
		<text transform="matrix(1 0 0 1 35.9912 329.8463)" class="st3 st6 st7">NAY</text>
		<path class="st12" d="M496.2,324.1h6.9c1,0,1.8,0.6,1.8,1.4l0,0c0,0.8-0.8,1.4-1.8,1.4h-6.9c-1,0-1.8-0.6-1.8-1.4l0,0
			C494.4,324.7,495.2,324.1,496.2,324.1z"/>
		<path class="st11" d="M500.3,319.4l-6.1,6.1l6.1,6.1"/>
		<text transform="matrix(1 0 0 1 509.3623 330.0162)" class="st12 st6 st7">4.25</text>
		<text transform="matrix(1 0 0 1 462.5137 330.0162)" class="st12 st6 st7">  4.17</text>
		<text transform="matrix(1 0 0 1 43.6489 346.524)" class="st3 st6 st7">NL</text>
		<path class="st12" d="M184.4,340.8h14.7c1,0,1.8,0.6,1.8,1.4l0,0c0,0.8-0.8,1.4-1.8,1.4h-14.7c-1,0-1.8-0.6-1.8-1.4l0,0
			C182.6,341.4,183.4,340.8,184.4,340.8z"/>
		<path class="st11" d="M188.6,336.1l-6.1,6.1l6.1,6.1"/>
		<text transform="matrix(1 0 0 1 205.5015 346.6949)" class="st12 st6 st7">1.93</text>
		<text transform="matrix(1 0 0 1 150.7891 346.6949)" class="st12 st6 st7">  1.79</text>
		<text transform="matrix(1 0 0 1 34.5776 363.2037)" class="st3 st6 st7">OAX</text>
		<path class="st13" d="M342.9,357.5h115.6c1,0,1.8,0.6,1.8,1.4l0,0c0,0.8-0.8,1.4-1.8,1.4H342.9c-1,0-1.8-0.6-1.8-1.4l0,0
			C341.1,358.1,341.9,357.5,342.9,357.5z"/>
		<path class="st14" d="M454.4,352.7l6.1,6.1l-6.1,6.1"/>
		<text transform="matrix(1 0 0 1 309.2734 363.3736)" class="st15 st6 st7">  3.00</text>
		<text transform="matrix(1 0 0 1 464.8379 363.3736)" class="st15 st6 st7">3.91</text>
		<text transform="matrix(1 0 0 1 35.1841 379.8824)" class="st3 st6 st7">PUE</text>
		<path class="st13" d="M217.2,374.2h81.5c1,0,1.8,0.6,1.8,1.4l0,0c0,0.8-0.8,1.4-1.8,1.4h-81.5c-1,0-1.8-0.6-1.8-1.4l0,0
			C215.4,374.8,216.2,374.2,217.2,374.2z"/>
		<path class="st14" d="M294.6,369.4l6.1,6.1l-6.1,6.1"/>
		<text transform="matrix(1 0 0 1 183.5234 380.0523)" class="st15 st6 st7">  2.04</text>
		<text transform="matrix(1 0 0 1 305.0361 380.0523)" class="st15 st6 st7">2.69</text>
		<text transform="matrix(1 0 0 1 32.771 396.5602)" class="st3 st6 st7">QRO</text>
		<path class="st8" d="M171.3,390.8h26.5c1,0,1.8,0.6,1.8,1.4l0,0c0,0.8-0.8,1.4-1.8,1.4h-26.5c-1,0-1.8-0.6-1.8-1.4l0,0
			C169.5,391.4,170.3,390.8,171.3,390.8z"/>
		<path class="st9" d="M193.7,386.1l6.1,6.1l-6.1,6.1"/>
		<text transform="matrix(1 0 0 1 137.6816 396.731)" class="st3 st6 st7">  1.69</text>
		<text transform="matrix(1 0 0 1 204.1836 396.731)" class="st3 st6 st7">1.92</text>
		<text transform="matrix(1 0 0 1 24.3062 413.2398)" class="st3 st6 st7">QROO</text>
		<path class="st8" d="M184.4,407.5h25.2c1,0,1.8,0.6,1.8,1.4l0,0c0,0.8-0.8,1.4-1.8,1.4h-25.2c-1,0-1.8-0.6-1.8-1.4l0,0
			C182.6,408.1,183.4,407.5,184.4,407.5z"/>
		<path class="st9" d="M205.5,402.8l6.1,6.1l-6.1,6.1"/>
		<text transform="matrix(1 0 0 1 150.7891 413.4107)" class="st3 st6 st7">  1.79</text>
		<text transform="matrix(1 0 0 1 215.9736 413.4107)" class="st3 st6 st7">2.01</text>
		<text transform="matrix(1 0 0 1 39.4185 429.9185)" class="st3 st6 st7">SIN</text>
		<path class="st8" d="M371.7,424.2h18.6c1,0,1.8,0.6,1.8,1.4l0,0c0,0.8-0.8,1.4-1.8,1.4h-18.6c-1,0-1.8-0.6-1.8-1.4l0,0
			C369.9,424.8,370.7,424.2,371.7,424.2z"/>
		<path class="st9" d="M386.2,419.5l6.1,6.1l-6.1,6.1"/>
		<text transform="matrix(1 0 0 1 338.082 430.0885)" class="st3 st6 st7">  3.22</text>
		<text transform="matrix(1 0 0 1 396.7197 430.0885)" class="st3 st6 st7">3.39</text>
		<text transform="matrix(1 0 0 1 36.9902 446.5982)" class="st3 st6 st7">SLP</text>
		<path class="st8" d="M260.4,440.9h55.3c1,0,1.8,0.6,1.8,1.4l0,0c0,0.8-0.8,1.4-1.8,1.4h-55.3c-1,0-1.8-0.6-1.8-1.4l0,0
			C258.6,441.5,259.4,440.9,260.4,440.9z"/>
		<path class="st9" d="M311.6,436.1l6.1,6.1l-6.1,6.1"/>
		<text transform="matrix(1 0 0 1 226.7432 446.7672)" class="st3 st6 st7">  2.37</text>
		<text transform="matrix(1 0 0 1 322.0693 446.7672)" class="st3 st6 st7">2.82</text>
		<text transform="matrix(1 0 0 1 33.9771 463.276)" class="st3 st6 st7">SON</text>
		<path class="st8" d="M276.1,457.6h14.7c1,0,1.8,0.6,1.8,1.4l0,0c0,0.8-0.8,1.4-1.8,1.4h-14.7c-1,0-1.8-0.6-1.8-1.4l0,0
			C274.3,458.2,275.1,457.6,276.1,457.6z"/>
		<path class="st9" d="M286.7,452.8l6.1,6.1l-6.1,6.1"/>
		<text transform="matrix(1 0 0 1 242.4731 463.4469)" class="st3 st6 st7">  2.49</text>
		<text transform="matrix(1 0 0 1 297.1855 463.4469)" class="st3 st6 st7">2.63</text>
		<text transform="matrix(1 0 0 1 37.2026 479.9547)" class="st3 st6 st7">TAB</text>
		<path class="st8" d="M405.8,474.2H452c1,0,1.8,0.6,1.8,1.4l0,0c0,0.8-0.8,1.4-1.8,1.4h-46.2c-1,0-1.8-0.6-1.8-1.4l0,0
			C404,474.8,404.8,474.2,405.8,474.2z"/>
		<path class="st9" d="M447.8,469.5l6.1,6.1l-6.1,6.1"/>
		<text transform="matrix(1 0 0 1 372.1338 480.1246)" class="st3 st6 st7">  3.48</text>
		<text transform="matrix(1 0 0 1 458.291 480.1246)" class="st3 st6 st7">3.86</text>
		<text transform="matrix(1 0 0 1 20.8784 496.6344)" class="st3 st6 st7">TAMPS</text>
		<path class="st8" d="M276.1,490.9h10.8c1,0,1.8,0.6,1.8,1.4l0,0c0,0.8-0.8,1.4-1.8,1.4h-10.8c-1,0-1.8-0.6-1.8-1.4l0,0
			C274.3,491.5,275.1,490.9,276.1,490.9z"/>
		<path class="st9" d="M282.8,486.2l6.1,6.1l-6.1,6.1"/>
		<text transform="matrix(1 0 0 1 242.4731 496.8033)" class="st3 st6 st7">  2.49</text>
		<text transform="matrix(1 0 0 1 293.2461 496.8033)" class="st3 st6 st7">2.60</text>
		<text transform="matrix(1 0 0 1 30.3423 513.3121)" class="st3 st6 st7">TLAX</text>
		<path class="st8" d="M342.9,507.6h92c1,0,1.8,0.6,1.8,1.4l0,0c0,0.8-0.8,1.4-1.8,1.4h-92c-1,0-1.8-0.6-1.8-1.4l0,0
			C341.1,508.2,341.9,507.6,342.9,507.6z"/>
		<path class="st9" d="M430.8,502.9l6.1,6.1l-6.1,6.1"/>
		<text transform="matrix(1 0 0 1 309.2734 513.483)" class="st3 st6 st7">  3.00</text>
		<text transform="matrix(1 0 0 1 441.2578 513.483)" class="st3 st6 st7">3.73</text>
		<text transform="matrix(1 0 0 1 35.1841 529.9918)" class="st3 st6 st7">VER</text>
		<path class="st8" d="M356,524.3h55.3c1,0,1.8,0.6,1.8,1.4l0,0c0,0.8-0.8,1.4-1.8,1.4H356c-1,0-1.8-0.6-1.8-1.4l0,0
			C354.2,524.9,355,524.3,356,524.3z"/>
		<path class="st9" d="M407.2,519.5l6.1,6.1l-6.1,6.1"/>
		<text transform="matrix(1 0 0 1 322.3672 530.1608)" class="st3 st6 st7">  3.10</text>
		<text transform="matrix(1 0 0 1 417.6777 530.1608)" class="st3 st6 st7">3.55</text>
		<text transform="matrix(1 0 0 1 34.583 546.6705)" class="st3 st6 st7">YUC</text>
		<path class="st8" d="M433.3,540.9h25.2c1,0,1.8,0.6,1.8,1.4l0,0c0,0.8-0.8,1.4-1.8,1.4h-25.2c-1,0-1.8-0.6-1.8-1.4l0,0
			C431.5,541.6,432.3,540.9,433.3,540.9z"/>
		<path class="st9" d="M454.4,536.2l6.1,6.1l-6.1,6.1"/>
		<text transform="matrix(1 0 0 1 399.6387 546.8405)" class="st3 st6 st7">  3.69</text>
		<text transform="matrix(1 0 0 1 464.8379 546.8405)" class="st3 st6 st7">3.91</text>
		<text transform="matrix(1 0 0 1 35.7949 563.3483)" class="st3 st6 st7">ZAC</text>
		<path class="st8" d="M339,557.6h107.7c1,0,1.8,0.6,1.8,1.4l0,0c0,0.8-0.8,1.4-1.8,1.4H339c-1,0-1.8-0.6-1.8-1.4l0,0
			C337.2,558.2,338,557.6,339,557.6z"/>
		<path class="st9" d="M442.6,552.9l6.1,6.1l-6.1,6.1"/>
		<text transform="matrix(1 0 0 1 305.3335 563.5192)" class="st3 st6 st7">  2.97</text>
		<text transform="matrix(1 0 0 1 453.0479 563.5192)" class="st3 st6 st7">3.82</text>
	</g>
	<g id="footer-svg_00000168103868864910474060000001520366719560021386_">
		<text transform="matrix(1 0 0 1 9.8481 611.317)" class="st16 st6 st17">Created with</text>
		<text transform="matrix(1 0 0 1 68.332 611.317)" class="st16 st6 st17">Datawrapper</text>
	</g>
	<text transform="matrix(1 0 0 1 546.6125 46.4778)" class="st10 st6 st7">+20%</text>
	<text transform="matrix(1 0 0 1 546.003 62.8738)" class="st12 st6 st7">+0%</text>
	<text transform="matrix(1 0 0 1 546.0031 79.5525)" class="st12 st6 st7">-7.5%</text>
	<text transform="matrix(1 0 0 1 546.0025 96.2312)" class="st12 st6 st7">-37.3%</text>
	<text transform="matrix(1 0 0 1 546.0031 112.9099)" class="st10 st6 st7">+10%</text>
	<text transform="matrix(1 0 0 1 546.0031 129.5891)" class="st15 st6 st7">+32%</text>
	<text transform="matrix(1 0 0 1 546.0031 146.2678)" class="st3 st6 st7">+23%</text>
	<text transform="matrix(1 0 0 1 546.003 162.9465)" class="st3 st6 st7">+2%</text>
	<text transform="matrix(1 0 0 1 546.0031 179.6252)" class="st3 st6 st7">+15%</text>
	<text transform="matrix(1 0 0 1 546.0031 196.304)" class="st3 st6 st7">+25%</text>
	<text transform="matrix(1 0 0 1 546.0031 212.9827)" class="st15 st6 st7">+47%</text>
	<text transform="matrix(1 0 0 1 546.0031 229.6619)" class="st15 st6 st7">+33%</text>
	<text transform="matrix(1 0 0 1 546.0031 246.3406)" class="st3 st6 st7">+23%</text>
	<text transform="matrix(1 0 0 1 546.0031 263.0193)" class="st3 st6 st7">+27%</text>
	<text transform="matrix(1 0 0 1 546.003 279.698)" class="st3 st6 st7">+11%</text>
	<text transform="matrix(1 0 0 1 546.0031 296.3772)" class="st3 st6 st7">+25%</text>
	<text transform="matrix(1 0 0 1 546.0031 313.0559)" class="st3 st6 st7">+20%</text>
	<text transform="matrix(1 0 0 1 546.0031 329.7346)" class="st12 st6 st7">-1.9%</text>
	<text transform="matrix(1 0 0 1 546.003 346.4133)" class="st12 st6 st7">-7.3%</text>
	<text transform="matrix(1 0 0 1 546.0031 363.092)" class="st15 st6 st7">+30%</text>
	<text transform="matrix(1 0 0 1 546.0031 379.7708)" class="st15 st6 st7">+32%</text>
	<text transform="matrix(1 0 0 1 546.0031 396.4495)" class="st3 st6 st7">+14%</text>
	<text transform="matrix(1 0 0 1 546.0026 413.1282)" class="st3 st6 st7">+12%</text>
	<text transform="matrix(1 0 0 1 546.0027 429.8069)" class="st3 st6 st7">+5%</text>
	<text transform="matrix(1 0 0 1 546.0027 446.4856)" class="st3 st6 st7">+19%</text>
	<text transform="matrix(1 0 0 1 546.0027 463.1643)" class="st3 st6 st7">+6%</text>
	<text transform="matrix(1 0 0 1 546.0027 479.843)" class="st3 st6 st7">+11%</text>
	<text transform="matrix(1 0 0 1 546.0027 496.5217)" class="st3 st6 st7">+4%</text>
	<text transform="matrix(1 0 0 1 546.0027 513.2014)" class="st3 st6 st7">+24%</text>
	<text transform="matrix(1 0 0 1 546.0027 529.8801)" class="st3 st6 st7">+15%</text>
	<text transform="matrix(1 0 0 1 546.0027 546.5588)" class="st3 st6 st7">+6%</text>
	<text transform="matrix(1 0 0 1 546.0027 563.2375)" class="st3 st6 st7">+29%</text>
	<g id="grid-container-svg_00000016070902589944529250000002749206424454427060_" transform="translate(57.60938, 35)">
		<g id="grid-svg_00000166665718327356406770000004914190962046736016_">
			
				<g id="x-tick-labels-svg_grid-x-svg_number-axis-svg_datawrapper-y25AT-16k86v8-svg_00000002346399915333766540000014953318323553284231_" transform="translate(0, 589.5)">
				<text transform="matrix(1 0 0 1 14.9307 -43.5658)" class="st18 st6 st7">1.0</text>
				<text transform="matrix(1 0 0 1 80.4204 -43.5658)" class="st18 st6 st7">1.5</text>
				<text transform="matrix(1 0 0 1 145.9097 -43.5658)" class="st18 st6 st7">2.0</text>
				<text transform="matrix(1 0 0 1 211.3994 -43.5658)" class="st18 st6 st7">2.5</text>
				<text transform="matrix(1 0 0 1 276.8887 -43.5658)" class="st18 st6 st7">3.0</text>
				<text transform="matrix(1 0 0 1 342.3779 -43.5658)" class="st18 st6 st7">3.5</text>
				<text transform="matrix(1 0 0 1 407.8672 -43.5658)" class="st18 st6 st7">4.0</text>
			</g>
			<g id="y-base-lines-svg_grid-y-svg_datawrapper-y25AT-1io9s9d-svg_00000023277519920381364440000011685415048110353575_">
			</g>
		</g>
	</g>
</g>
<g id="Capa_4">
</g>
</svg>
